<?xml version="1.0" encoding="utf-8"?>
<!-- Generator: Adobe Illustrator 19.0.0, SVG Export Plug-In . SVG Version: 6.00 Build 0)  -->
<svg version="1.1" id="Layer_1" xmlns="http://www.w3.org/2000/svg" xmlns:xlink="http://www.w3.org/1999/xlink" x="0px" y="0px"
	 viewBox="-57 180.9 480 480" style="enable-background:new -57 180.9 480 480;" xml:space="preserve">
<style type="text/css">
	.st0{fill:#00386C;}
	.st1{fill:#9DCD00;}
</style>
<path class="st0" d="M-57,375.8c2-1.1,1.9-3.3,2.5-5.1c4.6-12.5,17.2-21.9,30.6-22.4c9-0.3,18-0.2,27-0.2c78.3,0,156.7,0,235,0
	c18.9,0,32.1,9.3,36.6,25.6c1.3,4.8,1.6,9.8,1.6,14.8c0,69.7,0,139.5,0,209.2c0,26.9-5.9,35.4-30.9,44.3c-90.4,0-180.8,0-271.2,0
	c-11.9-3-22-8.5-27.6-20.3c-1.3-2.8-1.1-6.2-3.6-8.5C-57,534.2-57,455-57,375.8z M109.8,381.8c-41.4,0-82.8,0.1-124.2-0.1
	c-4.9,0-6.8,0.6-6.8,6.3c0.2,71.2,0.2,142.4,0.1,213.5c0,4.6,1.1,6,5.9,6c83.4-0.2,166.8-0.2,250.1,0c4.9,0,5.8-1.5,5.8-6
	c-0.1-71.2-0.1-142.4,0-213.5c0-4.9-1.1-6.3-6.2-6.3C192.9,381.9,151.4,381.8,109.8,381.8z"/>
<g>
	<path class="st1" d="M419.8,237.3c-6.9-20.6-21.3-32.3-42.6-35.7c-1.2-0.2-2.3-0.6-3.4-0.9c-96,0-192,0-288,0
		c-0.1,10-0.1,20-0.5,29.9c-0.2,4.1,1.5,5,5.2,5c12.6-0.2,25.2-0.1,37.8-0.1c79.4,0,158.8,0,238.2-0.1c6.2,0,11.8,1,16.4,5.7
		c4.5,4.8,5.2,10.5,5.2,16.7c0,82.6,0,165.2,0,247.7c0,1.6,0.1,3.2,0,4.8c-0.3,2.9,1.1,3.8,3.8,3.7c10.4-0.2,20.8-0.2,31.2-0.3
		c0-88,0-176,0-264C422,245.6,421.2,241.4,419.8,237.3z"/>
	<path class="st1" d="M346.7,300.9c-10.6-20.2-27.8-29.5-50.3-29.5c-45,0-90,0-135,0c-46.8,0-93.6,0.1-140.4-0.1
		c-5,0-6.6,1.2-6.3,6.3c0.4,7.2,0.5,14.4,0,21.6c-0.4,5.8,1.3,7.3,7.2,7.3c91-0.2,182-0.1,272.9-0.1c16.4,0,22.6,6.1,22.6,22.3
		c0,39.8,0,79.6,0,119.4c0,43.6,0.1,87.2-0.1,130.8c0,5,1.4,6.5,6.3,6.3c7.8-0.4,15.6-0.3,23.4,0c4.3,0.2,5.3-1.3,5.3-5.4
		c-0.1-84.4-0.1-168.8-0.1-253.1C352.2,317.5,350.9,308.8,346.7,300.9z"/>
	<path class="st1" d="M190.1,432.5c-3.3-3.7-5.1-3.1-8.3,0.1c-30.7,30.9-61.6,61.7-92.5,92.5c-7.8,7.8-12,7.8-19.7,0.2
		c-11.1-11-22.2-22-33.1-33.1c-2.3-2.4-3.8-2.6-6.2-0.1c-6.2,6.5-12.6,12.9-19.2,19c-2.8,2.6-2.5,4.2,0.1,6.7
		c11.6,11.3,22.9,22.9,34.4,34.3c9.3,9.2,20.5,14.4,33.9,14.3c12.8,0,23.8-4.7,32.8-13.6c32-31.9,63.9-63.9,95.9-95.9
		c2.4-2.4,2.6-3.8,0-6.2C202.1,444.9,195.8,438.9,190.1,432.5z"/>
</g>
</svg>
