<?xml version="1.0" encoding="utf-8"?>
<!-- Generator: Adobe Illustrator 19.0.0, SVG Export Plug-In . SVG Version: 6.00 Build 0)  -->
<svg version="1.1" id="Layer_1" xmlns="http://www.w3.org/2000/svg" xmlns:xlink="http://www.w3.org/1999/xlink" x="0px" y="0px"
	 viewBox="-41 164.9 512 512" style="enable-background:new -41 164.9 512 512;" xml:space="preserve">
<style type="text/css">
	.st0{fill:#9DCD00;}
	.st1{fill:#00386C;}
</style>
<g>
	<path class="st0" d="M308.7,557.7l-90-30c-4.4-1.5-9.2-0.8-13.1,1.8l-38.3,25.5c-38.2-17.3-69.1-48.3-86.4-86.4l25.5-38.3
		c2.6-3.9,3.2-8.7,1.8-13.1l-30-90c-2-6.1-7.8-10.3-14.2-10.3H4c-24.8,0-45,20.2-45,45c0,174.1,140.9,315,315,315
		c24.8,0,45-20.2,45-45v-60C319,565.4,314.9,559.7,308.7,557.7z M289,631.9c0,8.3-6.7,15-15,15c-157.1,0-285-127.9-285-285
		c0-8.3,6.7-15,15-15h49.2l24.3,72.8l-25.9,38.9c-2.7,4.1-3.3,9.3-1.4,13.9c20.6,51.5,61.9,92.8,113.4,113.4
		c4.6,1.8,9.8,1.3,13.9-1.4l38.9-25.9l72.8,24.3V631.9z"/>
	<path class="st0" d="M456,226.9h-47c0,1.4-30,0-30,0H214c-8.3,0-15,6.7-15,15v105v30v45c0,8.3,6.7,15,15,15h45v45
		c0,6.1,3.7,11.5,9.3,13.9c5.6,2.3,12.1,1,16.3-3.3l55.6-55.6H456c8.3,0,15-6.7,15-15v-180C471,233.6,464.3,226.9,456,226.9z
		 M441,406.9H334c-4,0-7.8,1.6-10.6,4.4L289,445.7v-23.8c0-8.3-6.7-15-15-15h-45v-150h212V406.9z"/>
</g>
<g>
	<path class="st1" d="M274,316.9c-8.3,0-15,6.7-15,15s6.7,15,15,15c8.3,0,15-6.7,15-15S282.3,316.9,274,316.9z"/>
	<path class="st1" d="M335,316.9c-8.3,0-15,6.7-15,15s6.7,15,15,15c8.3,0,15-6.7,15-15S343.3,316.9,335,316.9z"/>
	<path class="st1" d="M394,316.9c-8.3,0-15,6.7-15,15s6.7,15,15,15c8.3,0,15-6.7,15-15S402.3,316.9,394,316.9z"/>
	<path class="st1" d="M394,164.9H154c-8.3,0-15,6.7-15,15v182c0,8.3,6.7,15,15,15h45v-30h-30v-152h210v32c0,0,30,1.4,30,0v-47
		C409,171.6,402.3,164.9,394,164.9z"/>
</g>
</svg>
