<?xml version="1.0" encoding="utf-8"?>
<!-- Generator: Adobe Illustrator 19.0.0, SVG Export Plug-In . SVG Version: 6.00 Build 0)  -->
<svg version="1.1" id="Layer_1" xmlns="http://www.w3.org/2000/svg" xmlns:xlink="http://www.w3.org/1999/xlink" x="0px" y="0px"
	 viewBox="0 0 135 413" style="enable-background:new 0 0 135 413;" xml:space="preserve">
<style type="text/css">
	.st0{fill-rule:evenodd;clip-rule:evenodd;}
</style>
<path class="st0" d="M3,0c1.7,0,3,1.3,3,3S4.7,6,3,6C1.3,6,0,4.7,0,3S1.3,0,3,0z"/>
<path class="st0" d="M35,0c1.7,0,3,1.3,3,3s-1.3,3-3,3c-1.7,0-3-1.3-3-3S33.3,0,35,0z"/>
<path class="st0" d="M69,0c1.7,0,3,1.3,3,3s-1.3,3-3,3c-1.7,0-3-1.3-3-3S67.3,0,69,0z"/>
<path class="st0" d="M101,0c1.7,0,3,1.3,3,3s-1.3,3-3,3c-1.7,0-3-1.3-3-3S99.3,0,101,0z"/>
<path class="st0" d="M132,0c1.7,0,3,1.3,3,3s-1.3,3-3,3c-1.7,0-3-1.3-3-3S130.3,0,132,0z"/>
<path class="st0" d="M3,37c1.7,0,3,1.3,3,3c0,1.7-1.3,3-3,3c-1.7,0-3-1.3-3-3C0,38.3,1.3,37,3,37z"/>
<path class="st0" d="M35,37c1.7,0,3,1.3,3,3c0,1.7-1.3,3-3,3c-1.7,0-3-1.3-3-3C32,38.3,33.3,37,35,37z"/>
<path class="st0" d="M69,37c1.7,0,3,1.3,3,3c0,1.7-1.3,3-3,3c-1.7,0-3-1.3-3-3C66,38.3,67.3,37,69,37z"/>
<path class="st0" d="M101,37c1.7,0,3,1.3,3,3c0,1.7-1.3,3-3,3c-1.7,0-3-1.3-3-3C98,38.3,99.3,37,101,37z"/>
<path class="st0" d="M132,37c1.7,0,3,1.3,3,3c0,1.7-1.3,3-3,3c-1.7,0-3-1.3-3-3C129,38.3,130.3,37,132,37z"/>
<path class="st0" d="M3,74c1.7,0,3,1.3,3,3c0,1.7-1.3,3-3,3c-1.7,0-3-1.3-3-3C0,75.3,1.3,74,3,74z"/>
<path class="st0" d="M35,74c1.7,0,3,1.3,3,3c0,1.7-1.3,3-3,3c-1.7,0-3-1.3-3-3C32,75.3,33.3,74,35,74z"/>
<path class="st0" d="M69,74c1.7,0,3,1.3,3,3c0,1.7-1.3,3-3,3c-1.7,0-3-1.3-3-3C66,75.3,67.3,74,69,74z"/>
<path class="st0" d="M101,74c1.7,0,3,1.3,3,3c0,1.7-1.3,3-3,3c-1.7,0-3-1.3-3-3C98,75.3,99.3,74,101,74z"/>
<path class="st0" d="M132,74c1.7,0,3,1.3,3,3c0,1.7-1.3,3-3,3c-1.7,0-3-1.3-3-3C129,75.3,130.3,74,132,74z"/>
<path class="st0" d="M3,111c1.7,0,3,1.3,3,3c0,1.7-1.3,3-3,3c-1.7,0-3-1.3-3-3C0,112.3,1.3,111,3,111z"/>
<path class="st0" d="M35,111c1.7,0,3,1.3,3,3c0,1.7-1.3,3-3,3c-1.7,0-3-1.3-3-3C32,112.3,33.3,111,35,111z"/>
<path class="st0" d="M69,111c1.7,0,3,1.3,3,3c0,1.7-1.3,3-3,3c-1.7,0-3-1.3-3-3C66,112.3,67.3,111,69,111z"/>
<path class="st0" d="M101,111c1.7,0,3,1.3,3,3c0,1.7-1.3,3-3,3c-1.7,0-3-1.3-3-3C98,112.3,99.3,111,101,111z"/>
<path class="st0" d="M132,111c1.7,0,3,1.3,3,3c0,1.7-1.3,3-3,3c-1.7,0-3-1.3-3-3C129,112.3,130.3,111,132,111z"/>
<path class="st0" d="M3,148c1.7,0,3,1.3,3,3c0,1.7-1.3,3-3,3c-1.7,0-3-1.3-3-3C0,149.3,1.3,148,3,148z"/>
<path class="st0" d="M35,148c1.7,0,3,1.3,3,3c0,1.7-1.3,3-3,3c-1.7,0-3-1.3-3-3C32,149.3,33.3,148,35,148z"/>
<path class="st0" d="M69,148c1.7,0,3,1.3,3,3c0,1.7-1.3,3-3,3c-1.7,0-3-1.3-3-3C66,149.3,67.3,148,69,148z"/>
<path class="st0" d="M101,148c1.7,0,3,1.3,3,3c0,1.7-1.3,3-3,3c-1.7,0-3-1.3-3-3C98,149.3,99.3,148,101,148z"/>
<path class="st0" d="M132,148c1.7,0,3,1.3,3,3c0,1.7-1.3,3-3,3c-1.7,0-3-1.3-3-3C129,149.3,130.3,148,132,148z"/>
<path class="st0" d="M3,185c1.7,0,3,1.3,3,3c0,1.7-1.3,3-3,3c-1.7,0-3-1.3-3-3C0,186.3,1.3,185,3,185z"/>
<path class="st0" d="M35,185c1.7,0,3,1.3,3,3c0,1.7-1.3,3-3,3c-1.7,0-3-1.3-3-3C32,186.3,33.3,185,35,185z"/>
<path class="st0" d="M69,185c1.7,0,3,1.3,3,3c0,1.7-1.3,3-3,3c-1.7,0-3-1.3-3-3C66,186.3,67.3,185,69,185z"/>
<path class="st0" d="M101,185c1.7,0,3,1.3,3,3c0,1.7-1.3,3-3,3c-1.7,0-3-1.3-3-3C98,186.3,99.3,185,101,185z"/>
<path class="st0" d="M132,185c1.7,0,3,1.3,3,3c0,1.7-1.3,3-3,3c-1.7,0-3-1.3-3-3C129,186.3,130.3,185,132,185z"/>
<path class="st0" d="M3,222c1.7,0,3,1.3,3,3s-1.3,3-3,3c-1.7,0-3-1.3-3-3S1.3,222,3,222z"/>
<path class="st0" d="M35,222c1.7,0,3,1.3,3,3s-1.3,3-3,3c-1.7,0-3-1.3-3-3S33.3,222,35,222z"/>
<path class="st0" d="M69,222c1.7,0,3,1.3,3,3s-1.3,3-3,3c-1.7,0-3-1.3-3-3S67.3,222,69,222z"/>
<path class="st0" d="M101,222c1.7,0,3,1.3,3,3s-1.3,3-3,3c-1.7,0-3-1.3-3-3S99.3,222,101,222z"/>
<path class="st0" d="M132,222c1.7,0,3,1.3,3,3s-1.3,3-3,3c-1.7,0-3-1.3-3-3S130.3,222,132,222z"/>
<path class="st0" d="M3,259c1.7,0,3,1.3,3,3c0,1.7-1.3,3-3,3c-1.7,0-3-1.3-3-3C0,260.3,1.3,259,3,259z"/>
<path class="st0" d="M35,259c1.7,0,3,1.3,3,3c0,1.7-1.3,3-3,3c-1.7,0-3-1.3-3-3C32,260.3,33.3,259,35,259z"/>
<path class="st0" d="M69,259c1.7,0,3,1.3,3,3c0,1.7-1.3,3-3,3c-1.7,0-3-1.3-3-3C66,260.3,67.3,259,69,259z"/>
<path class="st0" d="M101,259c1.7,0,3,1.3,3,3c0,1.7-1.3,3-3,3c-1.7,0-3-1.3-3-3C98,260.3,99.3,259,101,259z"/>
<path class="st0" d="M132,259c1.7,0,3,1.3,3,3c0,1.7-1.3,3-3,3c-1.7,0-3-1.3-3-3C129,260.3,130.3,259,132,259z"/>
<path class="st0" d="M3,296c1.7,0,3,1.3,3,3c0,1.7-1.3,3-3,3c-1.7,0-3-1.3-3-3C0,297.3,1.3,296,3,296z"/>
<path class="st0" d="M35,296c1.7,0,3,1.3,3,3c0,1.7-1.3,3-3,3c-1.7,0-3-1.3-3-3C32,297.3,33.3,296,35,296z"/>
<path class="st0" d="M69,296c1.7,0,3,1.3,3,3c0,1.7-1.3,3-3,3c-1.7,0-3-1.3-3-3C66,297.3,67.3,296,69,296z"/>
<path class="st0" d="M101,296c1.7,0,3,1.3,3,3c0,1.7-1.3,3-3,3c-1.7,0-3-1.3-3-3C98,297.3,99.3,296,101,296z"/>
<path class="st0" d="M132,296c1.7,0,3,1.3,3,3c0,1.7-1.3,3-3,3c-1.7,0-3-1.3-3-3C129,297.3,130.3,296,132,296z"/>
<path class="st0" d="M3,333c1.7,0,3,1.3,3,3c0,1.7-1.3,3-3,3c-1.7,0-3-1.3-3-3C0,334.3,1.3,333,3,333z"/>
<path class="st0" d="M35,333c1.7,0,3,1.3,3,3c0,1.7-1.3,3-3,3c-1.7,0-3-1.3-3-3C32,334.3,33.3,333,35,333z"/>
<path class="st0" d="M69,333c1.7,0,3,1.3,3,3c0,1.7-1.3,3-3,3c-1.7,0-3-1.3-3-3C66,334.3,67.3,333,69,333z"/>
<path class="st0" d="M101,333c1.7,0,3,1.3,3,3c0,1.7-1.3,3-3,3c-1.7,0-3-1.3-3-3C98,334.3,99.3,333,101,333z"/>
<path class="st0" d="M132,333c1.7,0,3,1.3,3,3c0,1.7-1.3,3-3,3c-1.7,0-3-1.3-3-3C129,334.3,130.3,333,132,333z"/>
<path class="st0" d="M3,370c1.7,0,3,1.3,3,3c0,1.7-1.3,3-3,3c-1.7,0-3-1.3-3-3C0,371.3,1.3,370,3,370z"/>
<path class="st0" d="M35,370c1.7,0,3,1.3,3,3c0,1.7-1.3,3-3,3c-1.7,0-3-1.3-3-3C32,371.3,33.3,370,35,370z"/>
<path class="st0" d="M69,370c1.7,0,3,1.3,3,3c0,1.7-1.3,3-3,3c-1.7,0-3-1.3-3-3C66,371.3,67.3,370,69,370z"/>
<path class="st0" d="M101,370c1.7,0,3,1.3,3,3c0,1.7-1.3,3-3,3c-1.7,0-3-1.3-3-3C98,371.3,99.3,370,101,370z"/>
<path class="st0" d="M132,370c1.7,0,3,1.3,3,3c0,1.7-1.3,3-3,3c-1.7,0-3-1.3-3-3C129,371.3,130.3,370,132,370z"/>
<path class="st0" d="M3,407c1.7,0,3,1.3,3,3c0,1.7-1.3,3-3,3c-1.7,0-3-1.3-3-3C0,408.3,1.3,407,3,407z"/>
<path class="st0" d="M35,407c1.7,0,3,1.3,3,3c0,1.7-1.3,3-3,3c-1.7,0-3-1.3-3-3C32,408.3,33.3,407,35,407z"/>
<path class="st0" d="M69,407c1.7,0,3,1.3,3,3c0,1.7-1.3,3-3,3c-1.7,0-3-1.3-3-3C66,408.3,67.3,407,69,407z"/>
<path class="st0" d="M101,407c1.7,0,3,1.3,3,3c0,1.7-1.3,3-3,3c-1.7,0-3-1.3-3-3C98,408.3,99.3,407,101,407z"/>
<path class="st0" d="M132,407c1.7,0,3,1.3,3,3c0,1.7-1.3,3-3,3c-1.7,0-3-1.3-3-3C129,408.3,130.3,407,132,407z"/>
</svg>
