<?xml version="1.0" encoding="utf-8"?>
<!-- Generator: Adobe Illustrator 19.0.0, SVG Export Plug-In . SVG Version: 6.00 Build 0)  -->
<svg version="1.1" id="Layer_1" xmlns="http://www.w3.org/2000/svg" xmlns:xlink="http://www.w3.org/1999/xlink" x="0px" y="0px"
	 viewBox="-41 164.9 512 512" style="enable-background:new -41 164.9 512 512;" xml:space="preserve">
<style type="text/css">
	.st0{fill:#00386C;}
	.st1{fill:#9DCD00;}
</style>
<g>
	<path class="st0" d="M215,164.9c-141.4,0-256,114.6-256,256c0.2,141.3,114.7,255.8,256,256c141.4,0,256-114.6,256-256
		S356.4,164.9,215,164.9z M215,659.8c-132,0-238.9-107-238.9-238.9C-23.8,289,83.1,182.1,215,182c132,0,238.9,107,238.9,238.9
		S347,659.8,215,659.8z"/>
	<path class="st0" d="M215,207.6C97.2,207.6,1.7,303.1,1.7,420.9C1.8,538.7,97.2,634.1,215,634.2c117.8,0,213.3-95.5,213.3-213.3
		S332.8,207.6,215,207.6z M404.7,471.4c-18.2,67.6-70.9,120.5-138.5,139l-17.1,3.8c-22.6,4-45.7,4-68.3,0l-17.1-3.8
		C96.2,591.9,43.5,539,25.3,471.4l-3.6-16.7c-3.8-21.5-4-43.4-0.5-64.9l4.2-19.6c23-85.8,100.8-145.5,189.6-145.6
		c88.8,0.1,166.5,59.8,189.6,145.6l4.2,19.6c3.5,21.5,3.3,43.5-0.5,64.9L404.7,471.4z"/>
	<path class="st0" d="M215,361.2c-33,0-59.7,26.7-59.7,59.7s26.7,59.7,59.7,59.7c33,0,59.7-26.8,59.7-59.7
		C274.7,387.9,248,361.2,215,361.2z M215,463.6c-23.6,0-42.6-19.1-42.7-42.7c0-23.6,19.1-42.7,42.7-42.7s42.7,19.1,42.7,42.7
		S238.6,463.6,215,463.6z"/>
	<path class="st0" d="M215,395.3c-14.1,0-25.6,11.5-25.6,25.6s11.5,25.6,25.6,25.6s25.6-11.5,25.6-25.6S229.1,395.3,215,395.3z
		 M215,429.4c-4.7,0-8.5-3.8-8.5-8.5s3.8-8.5,8.5-8.5s8.5,3.8,8.5,8.5S219.7,429.4,215,429.4z"/>
</g>
<g>
	<path class="st1" d="M404.6,370.2c-61-21.6-125-33.3-189.6-34.7c-64.6,1.4-128.6,13.1-189.6,34.7l-4.2,19.6
		c40.5-14.6,115.5-37.2,193.8-37.2s153.3,22.5,193.8,37.2L404.6,370.2z"/>
	<path class="st1" d="M282.5,455.7c-21,16.1-33.3,41.1-33.4,67.6v90.8l17.1-3.8v-87c0-21.2,9.9-41.2,26.7-54.1
		c16.8-12.9,38.7-17.3,59.2-11.8l52.6,14l3.6-16.7l-51.8-13.8C330.8,434.1,303.5,439.5,282.5,455.7z"/>
	<path class="st1" d="M147.5,455.7c-21-16.1-48.3-21.6-74-14.8l-51.8,13.8l3.6,16.7l52.6-14c20.5-5.5,42.4-1.1,59.2,11.8
		c16.8,12.9,26.7,32.9,26.7,54.1v87l17.1,3.8v-90.8C180.8,496.8,168.5,471.8,147.5,455.7z"/>
</g>
</svg>
