<?xml version="1.0" encoding="utf-8"?>
<!-- Generator: Adobe Illustrator 19.0.0, SVG Export Plug-In . SVG Version: 6.00 Build 0)  -->
<svg version="1.1" id="Layer_1" xmlns="http://www.w3.org/2000/svg" xmlns:xlink="http://www.w3.org/1999/xlink" x="0px" y="0px"
	 viewBox="-247 370.9 100 100" style="enable-background:new -247 370.9 100 100;" xml:space="preserve">
<style type="text/css">
	.st0{fill:#00386C;}
	.st1{fill:#9DCD00;}
</style>
<g>
	<path class="st0" d="M-162.6,441.2h-8.6l-10.5-15c-0.3-0.4-0.8-0.7-1.3-0.7h-26.6c-0.4,0-0.9,0.2-1.2,0.5l-13.7,15.2l-21.3,3
		c-0.8,0.1-1.3,0.8-1.3,1.5v17.2c0,0.9,0.7,1.6,1.6,1.6h8.3c1.3,3.6,4.8,6.3,8.8,6.3s7.5-2.6,8.8-6.3h29.2c1.3,3.6,4.8,6.3,8.8,6.3
		c4.1,0,7.6-2.6,8.8-6.3h9.9c0.9,0,1.6-0.7,1.6-1.6v-20.3C-161.1,441.9-161.8,441.2-162.6,441.2z M-208.8,428.7h25l8.8,12.5h-45
		L-208.8,428.7z M-228.3,467.8c-3.5,0-6.3-2.8-6.3-6.3c0-3.5,2.8-6.3,6.3-6.3s6.3,2.8,6.3,6.3C-222,465-224.8,467.8-228.3,467.8z
		 M-181.4,467.8c-3.5,0-6.2-2.8-6.2-6.3c0-3.5,2.8-6.3,6.2-6.3c3.5,0,6.3,2.8,6.3,6.3C-175.1,465-177.9,467.8-181.4,467.8z
		 M-164.2,461.5h-7.8c0-5.2-4.2-9.4-9.4-9.4c-5.2,0-9.4,4.2-9.4,9.4h-28.1c0-5.2-4.2-9.4-9.4-9.4s-9.4,4.2-9.4,9.4h-6.3v-14.3
		l20.4-2.9h59.3V461.5z"/>
	<path class="st1" d="M-168.1,395.9h8.6c0.9,0,1.6-0.7,1.6-1.6v-3.1h9.4c0.9,0,1.6-0.7,1.6-1.6s-0.7-1.6-1.6-1.6h-9.4v-9.4h9.4
		c0.9,0,1.6-0.7,1.6-1.6s-0.7-1.6-1.6-1.6h-9.4v-3.1c0-0.9-0.7-1.6-1.6-1.6h-8.6c-5.6,0-10.2,4.5-10.2,10.2v0.8h-3.1
		c-9.5,0-17.2,7.7-17.2,17.2c0,9.5,7.7,17.2,17.2,17.2h17.2c7.8,0,14.1,6.3,14.1,14.1v1.5c0,6.9-5.1,13-10.9,14v3.2
		c7.6-0.9,14.1-8.5,14.1-17.1v-1.5c0-9.5-7.7-17.2-17.2-17.2h-17.2c-7.8,0-14.1-6.3-14.1-14.1c0-7.8,6.3-14.1,14.1-14.1h3.1v0.8
		C-178.3,391.3-173.7,395.9-168.1,395.9z M-175.1,381c0-3.9,3.2-7,7-7h7v18.8h-7c-3.9,0-7-3.2-7-7V381z"/>
</g>
</svg>
