<?xml version="1.0" encoding="utf-8"?>
<!-- Generator: Adobe Illustrator 19.0.0, SVG Export Plug-In . SVG Version: 6.00 Build 0)  -->
<svg version="1.1" id="Layer_1" xmlns="http://www.w3.org/2000/svg" xmlns:xlink="http://www.w3.org/1999/xlink" x="0px" y="0px"
	 viewBox="57 193.9 710 454" style="enable-background:new 57 193.9 710 454;" xml:space="preserve">
<style type="text/css">
	.st0{fill:none;stroke:#9DCB3C;stroke-width:2;stroke-miterlimit:10;}
</style>
<path class="st0" d="M412,195.9c47.7,0,94.1,6,137.7,17.8c42.1,11.4,79.9,27.7,112.3,48.4c32.4,20.7,57.8,44.8,75.5,71.6
	c18.3,27.7,27.6,57,27.6,87.3c0,30.3-9.3,59.6-27.6,87.3c-17.7,26.8-43.1,50.9-75.5,71.6s-70.2,37-112.3,48.4
	c-43.6,11.6-90,17.6-137.7,17.6s-94.1-6-137.7-17.8c-42.1-11.4-79.9-27.7-112.3-48.4s-57.8-44.8-75.5-71.6
	c-18.2-27.6-27.5-57-27.5-87.2s9.3-59.6,27.6-87.3c17.7-26.8,43.1-50.9,75.5-71.6s70.2-37,112.3-48.4
	C317.9,201.9,364.3,195.9,412,195.9"/>
</svg>
