<svg xmlns="http://www.w3.org/2000/svg" viewBox="0 0 710 454" class="ellipse">
    <path class="st0" id="venere" d="M355,2c47.7,0,94.1,6,137.7,17.8c42.1,11.4,79.9,27.7,112.3,48.4c32.4,20.7,57.8,44.8,75.5,71.6
c18.3,27.7,27.6,57,27.6,87.3s-9.3,59.6-27.6,87.3c-17.7,26.8-43.1,50.9-75.5,71.6c-32.4,20.7-70.2,37-112.3,48.4
C449.1,446,402.7,452,355,452c-47.7,0-94.1-6-137.7-17.8c-42.1-11.4-79.9-27.7-112.3-48.4c-32.4-20.7-57.8-44.8-75.5-71.6
C11.3,286.6,2,257.2,2,227s9.3-59.6,27.6-87.3c17.7-26.8,43.1-50.9,75.5-71.6c32.4-20.7,70.2-37,112.3-48.4C260.9,8,307.3,2,355,2
M355,0C158.9,0,0,101.6,0,227c0,125.4,158.9,227,355,227s355-101.6,355-227C710,101.6,551.1,0,355,0L355,0z"
	style="fill:none;fill-opacity:1;stroke:#b8ef00;stroke-width:1;stroke-linecap:butt;stroke-linejoin:miter;stroke-miterlimit:1;stroke-opacity:1" /> 
</svg>