<svg xmlns="http://www.w3.org/2000/svg" viewBox="0 0 710 454"><path d="M355 2c47.7 0 94.1 6 137.7 17.8 42.1 11.4 79.9 27.7 112.3 48.4 32.4 20.7 57.8 44.8 75.5 71.6 18.3 27.7 27.6 57 27.6 87.3s-9.3 59.6-27.6 87.3c-17.7 26.8-43.1 50.9-75.5 71.6-32.4 20.7-70.2 37-112.3 48.4C449.1 446 402.7 452 355 452c-47.7 0-94.1-6-137.7-17.8-42.1-11.4-79.9-27.7-112.3-48.4-32.4-20.7-57.8-44.8-75.5-71.6C11.3 286.6 2 257.2 2 227s9.3-59.6 27.6-87.3c17.7-26.8 43.1-50.9 75.5-71.6 32.4-20.7 70.2-37 112.3-48.4C260.9 8 307.3 2 355 2m0-2C158.9 0 0 101.6 0 227s158.9 227 355 227 355-101.6 355-227S551.1 0 355 0z" fill="#9dcb3c"/></svg>