<?xml version="1.0" encoding="utf-8"?>
<!-- Generator: Adobe Illustrator 19.0.0, SVG Export Plug-In . SVG Version: 6.00 Build 0)  -->
<svg version="1.1" id="Layer_1" xmlns="http://www.w3.org/2000/svg" xmlns:xlink="http://www.w3.org/1999/xlink" x="0px" y="0px"
	 viewBox="0 0 202 131" style="enable-background:new 0 0 202 131;" xml:space="preserve">
<style type="text/css">
	.st0{fill:#B7EE00;}
</style>
<path class="st0" d="M122,3c27,0,49,22,49,49c0,0.1,0,0.2,0,0.4c0,0.1,0,0.3,0,0.4l0,2.2l2.1,0.7C188.6,60.5,199,74.7,199,91
	c0,20.4-16.6,37-37,37H40c-20.4,0-37-16.6-37-37c0-20.4,16.6-37,37-37h4.2h2.3l0.6-2.2C50.7,38,63.3,28.2,77.6,28l1.7,0l0.9-1.4
	C89.1,11.8,104.7,3,122,3 M122,0c-18.8,0-35.3,10-44.5,25c-16,0.2-29.4,11.2-33.4,26H40C17.9,51,0,68.9,0,91s17.9,40,40,40h122
	c22.1,0,40-17.9,40-40c0-17.9-11.8-33.1-28-38.2c0-0.3,0-0.5,0-0.8C174,23.3,150.7,0,122,0L122,0z"/>
</svg>
