<?xml version="1.0" encoding="utf-8"?>
<!-- Generator: Adobe Illustrator 19.0.0, SVG Export Plug-In . SVG Version: 6.00 Build 0)  -->
<svg version="1.1" id="Capa_1" xmlns="http://www.w3.org/2000/svg" xmlns:xlink="http://www.w3.org/1999/xlink" x="0px" y="0px"
	 viewBox="-65 188.9 464 464" style="enable-background:new -65 188.9 464 464;" xml:space="preserve">
<g>
	<g>
		<rect x="47" y="604.9" class="st0" width="16" height="16"/>
		<path class="st0" d="M294.5,604.9c4.4-4.3,7.2-9.9,8.1-16l-2.4-16c-1.4-3-3.3-5.7-5.7-8c11-10.7,11.3-28.4,0.6-39.4
			c-0.2-0.2-0.4-0.4-0.6-0.6c11.1-10.8,11.3-28.5,0.5-39.5c-5.3-5.4-12.5-8.5-20.1-8.5h-48.4c7.9-22.6,9-47,3.1-70.2
			c-4.9-19.9-22.8-33.8-43.3-33.8H175c-4.4,0-8,3.6-8,8c0,0.7,0.1,1.3,0.2,1.9c9.2,36.4-2.8,74.8-31.1,99.5L124,492.9h-21v-8
			c0-4.4-3.6-8-8-8H15c-4.4,0-8,3.6-8,8v8h-72v16H7v112h-72v16H7v8c0,4.4,3.6,8,8,8h80c4.4,0,8-3.6,8-8v-8h22.1
			c21.7,10.5,45.5,16,69.6,16H275c15.4,0,28-12.5,28-27.9C303,617.4,300,610.2,294.5,604.9z M87,636.9H23v-144h64V636.9z M275,532.9
			c6.6,0,12,5.4,12,12s-5.4,12-12,12h-20v16h20c6.6,0,12,5.4,12,12s-5.4,12-12,12h-20v16h20c6.6,0,12,5.4,12,12s-5.4,12-12,12h-80.2
			c-22.3,0-44.3-5.2-64.2-15.2c-1.1-0.5-2.3-0.8-3.6-0.8h-24v-112h24c1.9,0,3.8-0.7,5.3-2l14.4-12.6c30.1-26.2,44.5-66.1,38.2-105.5
			h1.6c13.1,0,24.6,8.9,27.8,21.7c5.5,22,4,45.1-4.5,66.1l-0.1,0.3H191v16h84c6.6,0,12,5.4,12,12s-5.4,12-12,12h-20v16H275z"/>
	</g>
	<g>
		<rect x="79" y="236.9" class="st1" width="112" height="16"/>
		<rect x="79" y="284.9" class="st1" width="272" height="16"/>
		<rect x="79" y="332.9" class="st1" width="272" height="16"/>
		<rect x="263" y="380.9" class="st1" width="88" height="16"/>
		<rect x="263" y="428.9" class="st1" width="88" height="16"/>
		<path class="st1" d="M391,188.9H39c-4.4,0-8,3.6-8,8v280h16v-272h336v368h-82.8l2.4,16H391c4.4,0,8-3.6,8-8v-384
			C399,192.5,395.4,188.9,391,188.9z"/>
	</g>
</g>
</svg>
