<?xml version="1.0" encoding="utf-8"?>
<!-- Generator: Adobe Illustrator 19.0.0, SVG Export Plug-In . SVG Version: 6.00 Build 0)  -->
<svg version="1.1" id="Layer_1" xmlns="http://www.w3.org/2000/svg" xmlns:xlink="http://www.w3.org/1999/xlink" x="0px" y="0px"
	 viewBox="-57 180.9 480 480" style="enable-background:new -57 180.9 480 480;" xml:space="preserve">
<style type="text/css">
	.st0{fill:#9DCD00;}
	.st1{fill:#00386C;}
</style>
<g>
	<path class="st0" d="M196.1,180.9h-16c0,1.9-0.5,2.6-2.9,5.1c-4.7,4.1-7.3,10-7.3,16.2s2.7,12.1,7.3,16.2c2.3,2.4,2.9,3.1,2.9,5.1
		s-0.6,2.7-2.9,5.1c-4.6,4.1-7.3,10-7.3,16.2h16c0-2,0.6-2.7,2.9-5.1c4.7-4.1,7.3-10,7.3-16.2s-2.7-12.1-7.3-16.2
		c-2.3-2.4-2.9-3.1-2.9-5.1s0.5-2.6,2.9-5.1C193.4,193,196.1,187.1,196.1,180.9z"/>
	<path class="st0" d="M252.1,180.9h-16c0,1.9-0.5,2.6-2.9,5.1c-4.7,4.1-7.3,10-7.3,16.2s2.7,12.1,7.3,16.2c2.3,2.4,2.9,3.1,2.9,5.1
		s-0.6,2.7-2.9,5.1c-4.6,4.1-7.3,10-7.3,16.2h16c0-2,0.6-2.7,2.9-5.1c4.7-4.1,7.3-10,7.3-16.2s-2.7-12.1-7.3-16.2
		c-2.3-2.4-2.9-3.1-2.9-5.1s0.5-2.6,2.9-5.1C249.4,193,252.1,187.1,252.1,180.9z"/>
	<path class="st0" d="M300.8,207.3c-2.3-2.4-2.9-3.1-2.9-5.1s0.5-2.6,2.9-5.1c4.6-4.1,7.3-10,7.4-16.2h-16c0,1.9-0.5,2.6-2.9,5.1
		c-4.7,4.1-7.3,10-7.3,16.2s2.7,12.1,7.3,16.2c2.3,2.4,2.9,3.1,2.9,5.1s-0.6,2.7-2.9,5.1c-4.6,4.1-7.3,10-7.3,16.2h16
		c0-2,0.6-2.7,2.9-5.1c4.7-4.1,7.3-10,7.3-16.2S305.4,211.4,300.8,207.3z"/>
	<path class="st0" d="M84.1,180.9h-16c0,1.9-0.5,2.6-2.9,5.1c-4.7,4.1-7.3,10-7.3,16.2s2.7,12.1,7.3,16.2c2.3,2.4,2.9,3.1,2.9,5.1
		s-0.6,2.7-2.9,5.1c-4.6,4.1-7.3,10-7.3,16.2h16c0-2,0.6-2.7,2.9-5.1c4.7-4.1,7.3-10,7.3-16.2s-2.7-12.1-7.3-16.2
		c-2.3-2.4-2.9-3.1-2.9-5.1s0.5-2.6,2.9-5.1C81.4,193,84.1,187.1,84.1,180.9z"/>
	<path class="st0" d="M140.1,180.9h-16c0,1.9-0.5,2.6-2.9,5.1c-4.7,4.1-7.3,10-7.3,16.2s2.7,12.1,7.3,16.2c2.3,2.4,2.9,3.1,2.9,5.1
		s-0.6,2.7-2.9,5.1c-4.6,4.1-7.3,10-7.3,16.2h16c0-2,0.6-2.7,2.9-5.1c4.7-4.1,7.3-10,7.3-16.2s-2.7-12.1-7.3-16.2
		c-2.3-2.4-2.9-3.1-2.9-5.1s0.5-2.6,2.9-5.1C137.4,193,140.1,187.1,140.1,180.9z"/>
</g>
<path class="st1" d="M415,476.9c4.4,0,8-3.6,8-8v-64c0-4.4-3.6-8-8-8h-40v-112c0-13.3-10.7-24-24-24s-24,10.7-24,24v8h-32v-8
	c0-13.3-10.7-24-24-24s-24,10.7-24,24v8h-32c0-17.7-14.3-32-32-32s-32,14.3-32,32h-32v-8c0-13.3-10.7-24-24-24s-24,10.7-24,24v8H39
	v-8c0-13.3-10.7-24-24-24s-24,10.7-24,24v112h-40c-4.4,0-8,3.6-8,8v64c0,4.4,3.6,8,8,8h8v168h-16v16h48v-16h-16v-168h16v112
	c0,13.3,10.7,24,24,24s24-10.7,24-24v-8h32v8c0,13.3,10.7,24,24,24s24-10.7,24-24v-8h32c0,17.7,14.3,32,32,32s32-14.3,32-32h32v8
	c0,13.3,10.7,24,24,24s24-10.7,24-24v-8h32v8c0,13.3,10.7,24,24,24s24-10.7,24-24v-112h16v168h-16v16h48v-16h-16v-168H415z
	 M-41,460.9v-48h32v48H-41z M23,588.9c0,4.4-3.6,8-8,8s-8-3.6-8-8v-304c0-4.4,3.6-8,8-8s8,3.6,8,8V588.9z M39,564.9v-256h32v256H39z
	 M103,588.9c0,4.4-3.6,8-8,8s-8-3.6-8-8v-304c0-4.4,3.6-8,8-8s8,3.6,8,8V588.9z M119,564.9v-256h32v256H119z M199,580.9
	c0,8.8-7.2,16-16,16s-16-7.2-16-16v-288c0-8.8,7.2-16,16-16s16,7.2,16,16V580.9z M215,564.9v-256h32v256H215z M279,588.9
	c0,4.4-3.6,8-8,8s-8-3.6-8-8v-304c0-4.4,3.6-8,8-8s8,3.6,8,8V588.9z M295,564.9v-256h32v256H295z M359,588.9c0,4.4-3.6,8-8,8
	s-8-3.6-8-8v-304c0-4.4,3.6-8,8-8s8,3.6,8,8V588.9z M375,460.9v-48h32v48H375z"/>
</svg>
