<?xml version="1.0" encoding="utf-8"?>
<!-- Generator: Adobe Illustrator 19.0.0, SVG Export Plug-In . SVG Version: 6.00 Build 0)  -->
<svg version="1.1" id="Capa_1" xmlns="http://www.w3.org/2000/svg" xmlns:xlink="http://www.w3.org/1999/xlink" x="0px" y="0px"
	 viewBox="-57 180.9 480 480" style="enable-background:new -57 180.9 480 480;" xml:space="preserve">
<style type="text/css">
	.st0{fill:#00386C;}
	.st1{fill:#9DCD00;}
</style>
<g>
	<g>
		<path class="st0" d="M183,271.1c-61.7,0-111.8,49.9-112,111.6c0.2,12,2.2,23.9,5.9,35.3c5.4,12.1,11.6,23.9,18.7,35.2
			c16.4,28.5,41.1,71.7,41.1,87.7c0,4.4,3.6,8,8,8h76.6c4.4,0,8-3.6,8-8c0-16,24.7-59.2,41.1-87.7c7-11.3,13.3-23,18.7-35.2
			c3.7-11.4,5.6-23.3,5.9-35.3C294.8,321,244.7,271.1,183,271.1z M273.9,412.9c-5.2,11.1-11,21.8-17.4,32.3
			c-20.6,36-38.2,67.7-42.3,87.7h-62.4c-4.1-20-21.7-51.7-42.3-87.7c-6.4-10.4-12.2-21.2-17.4-32.3c-3.1-9.8-4.8-19.9-5.1-30.2
			c0-53,43-96,96-96s96,43,96,96C278.7,393,277,403.1,273.9,412.9z"/>
		<path class="st0" d="M211,638.6l-10.9,6.3H166l-10.9-6.3c-3.8-2.2-8.7-0.9-10.9,2.9c-2.2,3.8-0.9,8.7,2.9,10.9l12.8,7.4
			c1.2,0.7,2.6,1.1,4,1.1h38.4c1.4,0,2.8-0.4,4-1.1l12.8-7.4c3.8-2.2,5.1-7.1,2.9-10.9C219.7,637.7,214.8,636.4,211,638.6z"/>
		<path class="st0" d="M151,580.9c0.3,0,0.5,0,0.8,0l64-6.4c4.4-0.4,7.6-4.4,7.2-8.8s-4.4-7.6-8.8-7.2l-64,6.4
			c-4.4,0.4-7.6,4.4-7.2,8.8C143.4,577.8,146.9,580.9,151,580.9z"/>
		<path class="st0" d="M143,597.7c0.4,4.1,3.9,7.2,8,7.2c0.3,0,0.5,0,0.8,0l64-6.4c4.4-0.4,7.6-4.4,7.2-8.8s-4.4-7.6-8.8-7.2
			l-64,6.4C145.8,589.4,142.6,593.3,143,597.7z"/>
		<path class="st0" d="M143,621.7c0.4,4.1,3.9,7.2,8,7.2c0.3,0,0.5,0,0.8,0l64-6.4c4.4-0.4,7.6-4.4,7.2-8.8s-4.4-7.6-8.8-7.2
			l-64,6.4C145.8,613.4,142.6,617.3,143,621.7z"/>
	</g>
	<g>
		<path class="st1" d="M183,252.9c4.4,0,8-3.6,8-8v-56c0-4.4-3.6-8-8-8s-8,3.6-8,8v56C175,249.3,178.6,252.9,183,252.9z"/>
		<path class="st1" d="M290.3,292.9c0.1-0.1,0.1-0.1,0.2-0.2l39.6-39.6c3.2-3.1,3.3-8.1,0.2-11.3s-8.1-3.3-11.3-0.2
			c-0.1,0.1-0.1,0.1-0.2,0.2l-39.6,39.6c-3.2,3.1-3.3,8.1-0.2,11.3C282,295.9,287.1,296,290.3,292.9z"/>
		<path class="st1" d="M383,380.9h-56c-4.4,0-8,3.6-8,8s3.6,8,8,8h56c4.4,0,8-3.6,8-8S387.4,380.9,383,380.9z"/>
		<path class="st1" d="M290.5,485.1c-3.1-3.1-8.2-3.1-11.3,0c-3.1,3.1-3.1,8.2,0,11.3l39.6,39.6c3.2,3.1,8.2,3,11.3-0.2
			c3-3.1,3-8,0-11.1L290.5,485.1z"/>
		<path class="st1" d="M75.5,485.1l-39.6,39.6c-3.1,3.1-3.1,8.2,0,11.3c1.5,1.5,3.5,2.3,5.7,2.3c2.1,0,4.2-0.8,5.7-2.3l39.6-39.6
			c3.1-3.2,3-8.2-0.2-11.3C83.5,482.1,78.6,482.1,75.5,485.1z"/>
		<path class="st1" d="M47,388.9c0-4.4-3.6-8-8-8h-56c-4.4,0-8,3.6-8,8s3.6,8,8,8h56C43.4,396.9,47,393.3,47,388.9z"/>
		<path class="st1" d="M47.2,241.8c-3.1-3.2-8.1-3.3-11.3-0.2c-3.2,3.1-3.3,8.1-0.2,11.3c0.1,0.1,0.1,0.1,0.2,0.2l39.6,39.6
			c1.5,1.5,3.5,2.4,5.7,2.3c4.4,0,8-3.6,8-8c0-2.1-0.8-4.2-2.3-5.7L47.2,241.8z"/>
		<path class="st1" d="M233.3,397.2c-1.6-0.5-3.3-0.5-4.9,0.1L183,412.5l-45.5-15.2c-4.2-1.4-8.7,0.9-10.1,5.1
			c-0.5,1.6-0.5,3.3-0.1,4.9l32,104c1.3,4.2,5.8,6.6,10,5.3s6.6-5.8,5.3-10l-27.4-89.1l33.3,11.1c1.6,0.6,3.4,0.6,5.1,0l33.3-11.1
			l-27.4,89.1c-1.3,4.2,1.1,8.7,5.3,10s8.7-1.1,10-5.3l32-104C239.9,403,237.6,398.5,233.3,397.2z"/>
	</g>
</g>
</svg>
