<?xml version="1.0" encoding="utf-8"?>
<!-- Generator: Adobe Illustrator 19.0.0, SVG Export Plug-In . SVG Version: 6.00 Build 0)  -->
<svg version="1.1" id="Layer_1" xmlns="http://www.w3.org/2000/svg" xmlns:xlink="http://www.w3.org/1999/xlink" x="0px" y="0px"
	 viewBox="-57 180.9 480 480" style="enable-background:new -57 180.9 480 480;" xml:space="preserve">
<style type="text/css">
	.st0{fill:#00386C;}
	.st1{fill:#9DCD00;}
</style>
<path class="st0" d="M292.6,249.7h-41.1v-43.1c0-14.4-11.4-25.7-25.7-25.7h-85.2c-14.4,0-25.7,11.4-25.7,25.7v43.1H73.8
	c-15.4,0-27.7,12.4-27.7,27.7v355.7c0,15.4,12.4,27.7,27.7,27.7h218.5c15.4,0,27.7-12.4,27.7-27.7V277.4
	C319.3,262.1,306.9,249.7,292.6,249.7z M148.9,214.6h68.8v33.7h-68.8V214.6z M285.2,624.8H80.1V283.4h205.1V624.8z"/>
<g>
	<path class="st1" d="M217.4,538.6h-68.8c-9.4,0-17.4,7-17.4,17.4c0,10.4,7,17.4,17.4,17.4h68.8c9.4,0,17.4-7,17.4-17.4
		C234.8,545.6,227.8,538.6,217.4,538.6z"/>
	<path class="st1" d="M217.4,471.2h-68.8c-9.4,0-17.4,7-17.4,17.4c0,10,7,17.4,17.4,17.4h68.8c9.4,0,17.4-7,17.4-17.4
		C234.8,478.2,227.8,471.2,217.4,471.2z"/>
	<path class="st1" d="M217.4,402.4h-68.8c-9.4,0-17.4,7-17.4,17.4c0,10.4,7,17.4,17.4,17.4h68.8c9.4,0,17.4-7,17.4-17.4
		C234.8,409.4,227.8,402.4,217.4,402.4z"/>
	<path class="st1" d="M148.6,368.6h68.8c9.4,0,17.4-7,17.4-17.4c0-10.4-7-17.4-17.4-17.4h-68.8c-9.4,0-17.4,7-17.4,17.4
		C131.2,361.3,138.2,368.6,148.6,368.6z"/>
</g>
</svg>
