<svg width="428" height="326" xmlns="http://www.w3.org/2000/svg">
 <style type="text/css">.st0{fill:#00386C;}
	.st1{fill:none;}
	.st2{fill:#9DCD00;}</style>

 <g>
  <title>background</title>
  <rect fill="none" id="canvas_background" height="328" width="430" y="-1" x="-1"/>
 </g>
 <g>
  <title>Layer 1</title>
  <path id="svg_1" d="m1033,902.7"/>
  <g id="svg_2">
   <g id="svg_13">
    <polygon id="svg_14" points="159.53359985351562,20.5 99.33364868164062,20.5 85.73361206054688,61.29998779296875 145.8336181640625,61.29998779296875 " class="st1"/>
    <polygon id="svg_15" points="24.43359375,245.20001220703125 84.53359985351562,245.20001220703125 98.23361206054688,204.29998779296875 38.13360595703125,204.29998779296875 " class="st1"/>
    <polygon id="svg_16" points="139.03363037109375,81.79998779296875 78.93362426757812,81.79998779296875 65.33364868164062,122.60000610351562 125.43362426757812,122.60000610351562 " class="st1"/>
    <polygon id="svg_17" points="58.533599853515625,143 44.833587646484375,183.9000244140625 105.03359985351562,183.9000244140625 118.63363647460938,143 " class="st1"/>
    <polygon id="svg_18" points="241.23361206054688,20.5 181.13360595703125,20.5 167.43362426757812,61.29998779296875 227.53359985351562,61.29998779296875 " class="st1"/>
    <polygon id="svg_19" points="322.9336242675781,20.5 262.8335876464844,20.5 249.13363647460938,61.29998779296875 309.2336120605469,61.29998779296875 " class="st1"/>
    <polygon id="svg_20" points="288.8335876464844,122.60000610351562 302.5335998535156,81.79998779296875 242.33358764648438,81.79998779296875 228.73361206054688,122.60000610351562 " class="st1"/>
    <polygon id="svg_21" points="106.13360595703125,245.20001220703125 166.23361206054688,245.20001220703125 179.93362426757812,204.29998779296875 119.8336181640625,204.29998779296875 " class="st1"/>
    <polygon id="svg_22" points="207.13360595703125,122.60000610351562 220.8336181640625,81.79998779296875 160.63363647460938,81.79998779296875 147.03363037109375,122.60000610351562 " class="st1"/>
    <polygon id="svg_23" points="187.8336181640625,245.20001220703125 224.73361206054688,245.20001220703125 247.93365478515625,245.20001220703125 261.6335754394531,204.29998779296875 201.53359985351562,204.29998779296875 " class="st1"/>
    <polygon id="svg_24" points="310.4336242675781,122.60000610351562 370.5335998535156,122.60000610351562 384.2336120605469,81.79998779296875 324.0335998535156,81.79998779296875 " class="st1"/>
    <polygon id="svg_25" points="140.23361206054688,143 126.53359985351562,183.9000244140625 186.73361206054688,183.9000244140625 200.33364868164062,143 " class="st1"/>
    <polygon id="svg_26" points="330.8335876464844,61.29998779296875 390.9336242675781,61.29998779296875 404.6335754394531,20.5 344.5335998535156,20.5 " class="st1"/>
    <polygon id="svg_27" points="269.5335998535156,245.20001220703125 329.7336120605469,245.20001220703125 343.3335876464844,204.29998779296875 283.2336120605469,204.29998779296875 " class="st1"/>
    <polygon id="svg_28" points="221.93365478515625,143 208.23361206054688,183.9000244140625 268.4336242675781,183.9000244140625 282.0335998535156,143 " class="st1"/>
    <polygon id="svg_29" points="290.0335998535156,183.9000244140625 350.1336364746094,183.9000244140625 363.7336120605469,143 303.6335754394531,143 " class="st1"/>
    <path id="svg_30" d="m422.033611,0.6c-1,-0.4 -2.2,-0.5 -3.2,-0.5l-11.9,0l-20.4,0l-1.3,0l-33.1,0l-38.9,0l-40.9,-0.1l-180.4,0c-4.3,0 -8.3,2.8 -9.7,7l-81.7,245.1c-1.8,5.4 1.1,11.1 6.5,12.9c1,0.5 2,0.6 3.2,0.6l108.4,0l55,0l61.3,0l75.5,0l26.7,0c4.3,0 8.3,-2.8 9.7,-7l35.6,-106.9l26.8,-80.6l19.3,-57.7c1.8,-5.3 -1.2,-11 -6.5,-12.8zm-159.2,19.9l60.1,0l-13.7,40.9l-60.1,0l13.7,-40.9zm39.7,61.3l-13.7,40.9l-60.1,0l13.7,-40.9l60.1,0zm-121.4,-61.3l60.1,0l-13.7,40.9l-60.1,0l13.7,-40.9zm39.7,61.3l-13.7,40.9l-60.1,0l13.7,-40.9l60.1,0zm-121.5,-61.3l60.1,0l-13.7,40.9l-60.1,0l13.7,-40.9zm-20.4,61.3l60.1,0l-13.7,40.9l-60.1,0l13.7,-40.9zm5.6,163.4l-60.1,0l13.7,-40.9l60.1,0l-13.7,40.9zm-39.7,-61.3l13.7,-40.9l60.1,0l-13.6,40.9l-60.2,0zm121.4,61.3l-60.1,0l13.7,-40.9l60.1,0l-13.7,40.9zm-39.7,-61.3l13.7,-40.9l60.1,0l-13.7,40.9l-60.1,0zm121.4,61.3l-23.2,0l-36.9,0l13.7,-40.9l60.1,0l-13.7,40.9zm-39.7,-61.3l13.7,-40.9l60.1,0l-13.7,40.9l-60.1,0zm121.5,61.3l-60.1,0l13.7,-40.9l60.1,0l-13.7,40.9zm20.4,-61.3l-60.1,0l13.7,-40.9l60.1,0l-13.7,40.9zm20.4,-61.3l-60.1,0l13.7,-40.9l60.1,0l-13.7,40.9zm20.4,-61.3l-60.1,0l13.7,-40.9l60.1,0l-13.7,40.9z" class="st2"/>
    <path id="svg_31" d="m143.033611,306.5l0,20.4l122.6,0l0,-20.4l-30.6,0l0,-40.9l-61.3,0l0,40.9l-30.7,0zm51.1,-40.9l20.4,0l0,40.9l-20.4,0l0,-40.9z" class="st0"/>
   </g>
  </g>
 </g>
</svg>