<svg width="428" height="326" viewBox="0 0 428 326" xmlns="http://www.w3.org/2000/svg">
    <style>.st1{fill:none}</style>
    <path fill="none" id="canvas_background" d="M-1-1h430v328H-1z" />
    <g id="svg_2">
        <g id="svg_13">
            <path id="svg_14" class="st1" d="M159.534 20.5h-60.2l-13.6 40.8h60.1z" />
            <path id="svg_15" class="st1" d="M24.434 245.2h60.1l13.7-40.9h-60.1z" />
            <path id="svg_16" class="st1" d="M139.034 81.8h-60.1l-13.6 40.8h60.1z" />
            <path id="svg_17" class="st1" d="M58.534 143l-13.7 40.9h60.2l13.6-40.9z" />
            <path id="svg_18" class="st1" d="M241.234 20.5h-60.1l-13.7 40.8h60.1z" />
            <path id="svg_19" class="st1" d="M322.934 20.5h-60.1l-13.7 40.8h60.1z" />
            <path id="svg_20" class="st1" d="M288.834 122.6l13.7-40.8h-60.2l-13.6 40.8z" />
            <path id="svg_21" class="st1" d="M106.134 245.2h60.1l13.7-40.9h-60.1z" />
            <path id="svg_22" class="st1" d="M207.134 122.6l13.7-40.8h-60.2l-13.6 40.8z" />
            <path id="svg_23" class="st1" d="M187.834 245.2h60.1l13.7-40.9h-60.1z" />
            <path id="svg_24" class="st1" d="M310.434 122.6h60.1l13.7-40.8h-60.2z" />
            <path id="svg_25" class="st1" d="M140.234 143l-13.7 40.9h60.2l13.6-40.9z" />
            <path id="svg_26" class="st1" d="M330.834 61.3h60.1l13.7-40.8h-60.1z" />
            <path id="svg_27" class="st1" d="M269.534 245.2h60.2l13.6-40.9h-60.1z" />
            <path id="svg_28" class="st1" d="M221.934 143l-13.7 40.9h60.2l13.6-40.9z" />
            <path id="svg_29" class="st1" d="M290.034 183.9h60.1l13.6-40.9h-60.1z" />
            <path id="svg_30" d="M422.034.6c-1-.4-2.2-.5-3.2-.5h-105.6l-40.9-.1h-180.4c-4.3 0-8.3 2.8-9.7 7L.534 252.1c-1.8 5.4 1.1 11.1 6.5 12.9 1 .5 2 .6 3.2.6h326.9c4.3 0 8.3-2.8 9.7-7l35.6-106.9 26.8-80.6 19.3-57.7c1.8-5.3-1.2-11-6.5-12.8zm-159.2 19.9h60.1l-13.7 40.9h-60.1l13.7-40.9zm39.7 61.3l-13.7 40.9h-60.1l13.7-40.9h60.1zm-121.4-61.3h60.1l-13.7 40.9h-60.1l13.7-40.9zm39.7 61.3l-13.7 40.9h-60.1l13.7-40.9h60.1zm-121.5-61.3h60.1l-13.7 40.9h-60.1l13.7-40.9zm-20.4 61.3h60.1l-13.7 40.9h-60.1l13.7-40.9zm5.6 163.4h-60.1l13.7-40.9h60.1l-13.7 40.9zm-39.7-61.3l13.7-40.9h60.1l-13.6 40.9h-60.2zm121.4 61.3h-60.1l13.7-40.9h60.1l-13.7 40.9zm-39.7-61.3l13.7-40.9h60.1l-13.7 40.9h-60.1zm121.4 61.3h-60.1l13.7-40.9h60.1l-13.7 40.9zm-39.7-61.3l13.7-40.9h60.1l-13.7 40.9h-60.1zm121.5 61.3h-60.1l13.7-40.9h60.1l-13.7 40.9zm20.4-61.3h-60.1l13.7-40.9h60.1l-13.7 40.9zm20.4-61.3h-60.1l13.7-40.9h60.1l-13.7 40.9zm20.4-61.3h-60.1l13.7-40.9h60.1l-13.7 40.9z" fill="#9dcd00" />
            <path id="svg_31" d="M143.034 306.5v20.4h122.6v-20.4h-30.6v-40.9h-61.3v40.9h-30.7zm51.1-40.9h20.4v40.9h-20.4v-40.9z" fill="#00386c" />
        </g>
    </g>
</svg>