<svg width="327" height="512" xmlns="http://www.w3.org/2000/svg">
 <style type="text/css">.st0{fill:#00386C;}
	.st1{fill:#9DCD00;}</style>

 <g>
  <title>background</title>
  <rect fill="none" id="canvas_background" height="514" width="329" y="-1" x="-1"/>
 </g>
 <g>
  <title>Layer 1</title>
  <path id="svg_1" d="m1074,737.8"/>
  <g id="svg_2">
   <g id="svg_3">
    <path id="svg_4" d="m200.318571,29.700964l-3.7,16.6c65.2,14.6 112.6,74.1 112.6,141.3c0,13.7 -1.9,27.2 -5.7,40.3l16.4,4.8c4.3,-14.6 6.4,-29.8 6.4,-45c0.1,-76.1 -51.7,-141.2 -126,-158z" class="st0"/>
    <path id="svg_5" d="m123.918571,48.200964l-4.7,-16.4c-69.1,20.1 -117.2,84.2 -117.2,155.9c0,15.3 2.1,30.4 6.4,45l16.4,-4.8c-3.7,-13.1 -5.7,-26.7 -5.7,-40.3c0.1,-64.3 43.2,-121.6 104.8,-139.4z" class="st0"/>
    <path id="svg_6" d="m200.618571,65.100964l-4.9,16.3c47,14.2 79.1,57.4 79.4,106.3c0,5.3 -0.4,10.6 -1.2,15.9l16.9,2.5c0.9,-6.1 1.3,-12.2 1.3,-18.3c0,-56.3 -37.7,-106.7 -91.5,-122.7z" class="st0"/>
    <path id="svg_7" d="m122.918571,84.700964l-6.4,-15.8c-61.4,24.6 -93.9,92.1 -75,155.4l16.3,-4.9c-16.3,-54.9 11.9,-113.4 65.1,-134.7z" class="st0"/>
    <path id="svg_8" d="m193.718571,329.600964l-0.4,-17.3c7.7,-1.7 15.1,-4.2 22.2,-7.3c0,-0.1 0,-0.2 0,-0.3c12.6,-5.5 24.5,-13.2 35,-22.8l-11.5,-12.6c-13.5,12.3 -29.3,20.8 -46.1,25.4l-1.9,-77l-17.3,-4.9l0.3,17.2l0.6,21.9l0.4,14l0.9,32.1c-3.9,0.4 -7.8,0.6 -11.7,0.6c-3.9,0 -7.8,-0.2 -11.7,-0.6l0.9,-32.1l0.4,-14l0.6,-21.9l0.3,-14.2l-17.3,8.9l-1.9,70.3c-7.1,-1.9 -13.9,-4.4 -20.4,-7.6c0,0.1 0,0.1 0,0.2c-2.7,-1.3 -5.3,-2.7 -7.9,-4.2c-4.6,-2.7 -8.9,-5.8 -13.1,-9.1l-10.7,13.2c4.8,3.8 9.8,7.3 15.1,10.5c11.5,6.9 23.9,11.7 36.5,14.6l-0.4,17.2c-8.2,-1.7 -16.2,-4.1 -24,-7.1c0,0.1 0,0.2 0,0.3c-7.2,-2.8 -14.1,-6.2 -20.9,-10.2c-11.7,-7 -22.4,-15.6 -31.8,-25.5l-12.5,11.7c10.4,11.1 22.3,20.7 35.4,28.5c16.9,10.1 35,16.8 53.3,20.2l-4,147.4l-17.3,0l0,17.1l51.4,0l51.2,0l0,-17.1l-17.3,0l-4,-147.5c32.3,-6.2 62.7,-22.3 86.8,-47.7l-12.4,-11.7c-20.5,21.4 -46.8,35.5 -74.8,41.4zm-26.6,3.1c-1,0 -2.1,0 -3.1,0c-4.2,0 -8.4,-0.2 -12.6,-0.6l0.4,-17.1c3.9,0.4 8,0.6 11.9,0.6c0.1,0 0.1,0 0.2,0c0.1,0 0.1,0 0.2,0c3.9,0 8,-0.2 11.9,-0.6l0.4,17c-3,0.4 -6.1,0.6 -9.3,0.7zm14,162.2l-17.1,0l-17.1,0l3.9,-145.1c8.8,0.7 17.6,0.7 26.3,0l4,145.1z" class="st0"/>
   </g>
   <path id="svg_9" d="m323.518571,262.000964c-4.1,-5.4 -8.1,-10.5 -12.3,-15c-0.2,-0.3 -0.4,-0.5 -0.6,-0.7c-8.5,-9.4 -17.8,-18 -27.8,-25.7c-25,-19.2 -54,-32.5 -84.9,-39c-1.7,-9.7 -7.6,-18.2 -16,-23.4l0,-141c-0.1,-9.6 -7.9,-17.3 -17.5,-17.2c-7,0 -13.3,4.1 -16.2,10.5c-3.1,7.1 -5.9,14.5 -8.1,22c-3.8,12.2 -6.5,24.5 -7.9,37.2c-3.7,31.1 -0.3,62.7 9.8,92.3c-3.7,3.2 -6.5,7.2 -8.5,11.6l0,-0.1c-1.9,4.2 -3,8.9 -3.1,13.6l-121.9,70.7c-8.2,4.9 -11,15.5 -6.1,23.8c3.5,6.1 10.2,9.5 17.2,8.8c7.7,-0.9 15.5,-2.2 23.1,-4c12.4,-2.8 24.5,-6.7 36.2,-11.9c28.8,-12.4 54.4,-31.2 74.9,-54.8c2.4,0.8 5,1.3 7.5,1.5l0,0c4.3,0.5 8.7,0 12.9,-1.4l17.3,4.9l109.7,63.4c2.6,1.4 5.4,2.1 8.3,2.1c9.8,-0.1 17.6,-8.2 17.5,-18c-0.2,-3.7 -1.4,-7.3 -3.5,-10.2zm-251.5,-3.1c-10.8,4.6 -21.8,8.3 -33.3,10.9c-6.9,1.7 -14.1,2.9 -21.2,3.7l-0.6,-0.8l117.6,-68.3c0.1,0.1 0.1,0.1 0.1,0.2c1.2,2.1 2.7,4.1 4.4,5.8c-18.5,20.9 -41.3,37.4 -67,48.5zm77,-187.3c1.4,-11.6 3.7,-23 7.3,-34.2c2,-6.8 4.6,-13.7 7.5,-20.2l1,-0.1l0,136c-0.1,0 -0.1,0 -0.2,0c-2.5,0 -4.9,0.3 -7.3,0.9c-8.8,-26.7 -11.6,-54.7 -8.3,-82.4zm15.2,132.2c-9.3,-0.1 -16.7,-7.8 -16.6,-17.1c0.1,-9.2 7.6,-16.6 16.9,-16.6c9.3,0.1 16.9,7.8 16.9,17.1c-0.2,9.3 -7.9,16.7 -17.2,16.6zm145.1,69.3l-116.5,-67.3c1.5,-2.2 2.6,-4.7 3.5,-7.3c27.6,6.1 53.5,18.1 75.9,35.4c9,6.9 17.3,14.6 25,23c0.2,0.2 0.4,0.5 0.6,0.7c4.2,4.6 8.1,9.5 11.8,14.5l-0.3,1z" class="st1"/>
  </g>
 </g>
</svg>