<?xml version="1.0" encoding="utf-8"?>
<!-- Generator: Adobe Illustrator 19.0.0, SVG Export Plug-In . SVG Version: 6.00 Build 0)  -->
<svg version="1.1" id="Layer_1" xmlns="http://www.w3.org/2000/svg" xmlns:xlink="http://www.w3.org/1999/xlink" x="0px" y="0px"
	 viewBox="-57 180.9 480 480" style="enable-background:new -57 180.9 480 480;" xml:space="preserve">
<style type="text/css">
	.st0{fill:#00386C;}
	.st1{fill:#9DCD00;}
</style>
<path class="st0" d="M87.2,660.9c35.5,0,69.6-13.2,95.9-37c44.2,39.7,108.4,48.2,161.3,21.2c53-27,83.9-83.8,77.7-143
	c-6.1-59.1-48.1-108.4-105.5-123.9c24-60.1,5-128.8-46.5-168c-51.5-39.2-122.8-39.2-174.3,0c-51.5,39.2-70.5,107.9-46.5,168
	c-69.6,18.8-114.5,86.3-105,157.8S15.1,660.9,87.2,660.9z M151.2,517c0-17.1,3.4-34.1,10.1-49.8c14.5,2.5,29.3,2.5,43.8,0
	c19.2,45.2,10.6,97.4-21.9,134.1C162.6,578,151.2,548.1,151.2,517z M197.3,452.2c-9.4,1.1-18.9,1.1-28.3,0c4.1-7,8.8-13.5,14.2-19.6
	C188.5,438.7,193.2,445.3,197.3,452.2z M194.4,421.4c26.9-24.2,62.9-35.6,98.8-31.5c-17.4,29.5-46,50.9-79.2,59.2
	C208.6,439.1,202.1,429.8,194.4,421.4L194.4,421.4z M152.3,449.1c-33.3-8.4-61.8-29.7-79.2-59.3c35.9-4.1,71.9,7.3,98.8,31.4
	C164.3,429.8,157.7,439.1,152.3,449.1L152.3,449.1z M407,517c0.1,50.3-29.4,96-75.3,116.7c-45.9,20.7-99.7,12.4-137.3-21
	c36.5-40.5,46.7-98.2,26.4-148.8c38.2-10.4,70.4-36,89.2-70.9C366.9,407.2,406.9,458.3,407,517z M183.2,197.2
	c42.9,0,82.9,21.5,106.6,57.2c23.7,35.7,27.9,81,11.2,120.5c-42.6-7-86,6-117.8,35.1c-31.8-29.1-75.2-42.1-117.8-35.1
	c-16.7-39.5-12.5-84.7,11.2-120.5S140.3,197.2,183.2,197.2z M56.3,393c18.8,34.8,51,60.4,89.2,70.9
	c-20.3,50.6-10.1,108.3,26.4,148.8c-39.7,35.2-97.1,42.2-144.1,17.6c-47-24.6-73.9-75.8-67.6-128.5S4.8,405.8,56.3,393z"/>
<g>
	<path class="st1" d="M216.3,242.7H204v-12.9c0-4.3-3.4-7.7-7.7-7.7h-25.5c-4.3,0-7.7,3.4-7.7,7.7v12.9h-12.3
		c-4.6,0-8.3,3.7-8.3,8.3v106.5c0,4.6,3.7,8.3,8.3,8.3h65.4c4.6,0,8.3-3.7,8.3-8.3V251C224.3,246.4,220.6,242.7,216.3,242.7z
		 M173.3,232.2h20.6v10.1h-20.6V232.2z M214.1,355h-61.4V252.8h61.4V355z"/>
	<path class="st1" d="M173.3,339.6h20.6c2.8,0,5.2-2.1,5.2-5.2c0-3.1-2.1-5.2-5.2-5.2h-20.6c-2.8,0-5.2,2.1-5.2,5.2
		C168.1,337.5,170.2,339.6,173.3,339.6z"/>
	<path class="st1" d="M173.3,319.4h20.6c2.8,0,5.2-2.1,5.2-5.2c0-3.1-2.1-5.2-5.2-5.2h-20.6c-2.8,0-5.2,2.1-5.2,5.2
		C168.1,317.2,170.2,319.4,173.3,319.4z"/>
	<path class="st1" d="M173.3,298.8h20.6c2.8,0,5.2-2.1,5.2-5.2c0-3.1-2.1-5.2-5.2-5.2h-20.6c-2.8,0-5.2,2.1-5.2,5.2
		C168.1,296.7,170.2,298.8,173.3,298.8z"/>
	<path class="st1" d="M173.3,278.3h20.6c2.8,0,5.2-2.1,5.2-5.2c0-3.1-2.1-5.2-5.2-5.2h-20.6c-2.8,0-5.2,2.1-5.2,5.2
		C168.1,276.1,170.2,278.3,173.3,278.3z"/>
	<path class="st1" d="M123.4,506.4h-14.3l-18.1-25.9c-0.9-1.3-2.4-2-3.9-2H39.8c-1.3,0-2.7,0.6-3.6,1.5l-24,26.6l-37.2,5.2
		c-2.3,0.3-4.1,2.3-4.1,4.7V547c0,2.7,2.1,4.8,4.8,4.8h13.4c3,6.7,9.8,11.2,17,11.2c7.4,0,14.1-4.5,17-11.2h49.3
		c3,6.7,9.8,11.2,17,11.2c7.6,0,14.2-4.4,17.1-11.2h16.2c2.7,0,4.8-2.1,4.8-4.8v-35.9c0.2-1-0.1-2.1-0.7-2.9
		C126.2,507.1,124.9,506.4,123.4,506.4z M42.1,488.1h42.6l12.8,18.3H25.8L42.1,488.1z M6.5,553.7c-5.2,0-9.2-4-9.2-9.2
		s4-9.2,9.2-9.2c5.2,0,9.2,4,9.2,9.2S11.7,553.7,6.5,553.7z M90,553.7c-5.1,0-9-4-9-9.2c0-5.1,4.1-9.2,9-9.2c5.2,0,9.2,4,9.2,9.2
		S95.2,553.7,90,553.7z M118.4,542.5h-9.8c-1-9.4-9-16.7-18.6-16.7s-17.6,7.3-18.6,16.7H25.1c-1-9.4-9-16.7-18.6-16.7
		s-17.6,7.3-18.6,16.7h-7.3v-21.7l34.5-4.9h103.4V542.5z"/>
	<path class="st1" d="M307.7,470.3c0-0.2,0-0.3,0.6-0.9c1.7-1.5,2.7-3.6,2.7-5.9c0-2.2-1-4.4-2.6-5.8c-0.6-0.7-0.6-0.7-0.6-0.9
		c0-0.3,0-0.3,0.6-0.9c1.7-1.5,2.7-3.6,2.7-5.9v-1h-7.1v1c0,0.2,0,0.3-0.6,0.9c-1.7,1.5-2.7,3.6-2.7,5.9c0,2.2,1,4.4,2.6,5.8
		c0.6,0.7,0.6,0.7,0.6,0.9c0,0.2,0,0.3-0.6,0.9c-1.7,1.5-2.7,3.6-2.7,5.9v1h7.1V470.3z"/>
	<path class="st1" d="M325.4,470.3c0-0.2,0-0.3,0.6-0.9c1.7-1.5,2.7-3.6,2.7-5.9c0-2.2-1-4.4-2.6-5.8c-0.6-0.7-0.6-0.7-0.6-0.9
		c0-0.3,0-0.3,0.6-0.9c1.7-1.5,2.7-3.6,2.7-5.9v-1h-7.1v1c0,0.2,0,0.3-0.6,0.9c-1.7,1.5-2.7,3.6-2.7,5.9c0,2.2,1,4.4,2.6,5.8
		c0.6,0.7,0.6,0.7,0.6,0.9c0,0.2,0,0.3-0.6,0.9c-1.7,1.5-2.7,3.6-2.7,5.9v1h7.1V470.3z"/>
	<path class="st1" d="M343.2,470.3c0-0.2,0-0.3,0.6-0.9c1.7-1.5,2.7-3.6,2.7-5.9c0-2.2-1-4.4-2.6-5.8c-0.6-0.7-0.6-0.7-0.6-0.9
		c0-0.3,0-0.3,0.6-0.9c1.7-1.5,2.6-3.6,2.7-5.9l0-1h-7.1v1c0,0.2,0,0.3-0.6,0.9c-1.7,1.5-2.7,3.6-2.7,5.9c0,2.2,1,4.4,2.6,5.8
		c0.6,0.7,0.6,0.7,0.6,0.9c0,0.2,0,0.3-0.6,0.9c-1.7,1.5-2.7,3.6-2.7,5.9v1h7.1V470.3z"/>
	<path class="st1" d="M272.1,470.3c0-0.2,0-0.3,0.6-0.9c1.7-1.5,2.7-3.6,2.7-5.9c0-2.2-1-4.4-2.6-5.8c-0.6-0.7-0.6-0.7-0.6-0.9
		c0-0.3,0-0.3,0.6-0.9c1.7-1.5,2.7-3.6,2.7-5.9v-1h-7.1v1c0,0.2,0,0.3-0.6,0.9c-1.7,1.5-2.7,3.6-2.7,5.9c0,2.2,1,4.4,2.6,5.8
		c0.6,0.7,0.6,0.7,0.6,0.9c0,0.2,0,0.3-0.6,0.9c-1.7,1.5-2.7,3.6-2.7,5.9v1h7.1V470.3z"/>
	<path class="st1" d="M289.9,470.3c0-0.2,0-0.3,0.6-0.9c1.7-1.5,2.7-3.6,2.7-5.9c0-2.2-1-4.4-2.6-5.8c-0.6-0.7-0.6-0.7-0.6-0.9
		c0-0.3,0-0.3,0.6-0.9c1.7-1.5,2.7-3.6,2.7-5.9v-1h-7.1v1c0,0.2,0,0.3-0.6,0.9c-1.7,1.5-2.7,3.6-2.7,5.9c0,2.2,1,4.4,2.6,5.8
		c0.6,0.7,0.6,0.7,0.6,0.9c0,0.2,0,0.3-0.6,0.9c-1.7,1.5-2.7,3.6-2.7,5.9v1h7.1V470.3z"/>
	<path class="st1" d="M363.2,545c2,0,3.5-1.6,3.5-3.5v-20.3c0-2-1.6-3.5-3.5-3.5h-11.7v-34.5c0-4.8-3.9-8.6-8.6-8.6
		c-4.8,0-8.6,3.9-8.6,8.6v1.5h-8.2v-1.5c0-4.8-3.9-8.6-8.6-8.6s-8.6,3.9-8.6,8.6v1.5h-8.2v-1.5c0-4.8-3.9-8.6-8.6-8.6
		c-4.8,0-8.6,3.9-8.6,8.6v1.5h-8.2v-1.5c0-4.8-3.9-8.6-8.6-8.6s-8.6,3.9-8.6,8.6v34.5h-11.7c-2,0-3.5,1.6-3.5,3.5v20.3
		c0,2,1.6,3.5,3.5,3.5h1.5v51.3h-5.1v7.1h17.2v-7.1H255V545h3.1v34.5c0,4.8,3.9,8.6,8.6,8.6s8.6-3.9,8.6-8.6V578h8.2v1.5
		c0,4.8,3.9,8.6,8.6,8.6c4.8,0,8.6-3.9,8.6-8.6V578h8.2v1.5c0,4.8,3.9,8.6,8.6,8.6s8.6-3.9,8.6-8.6V578h8.2v1.5
		c0,4.8,3.9,8.6,8.6,8.6c4.8,0,8.6-3.9,8.6-8.6V545h3.1v51.3h-5.1v7.1h17.2v-7.1h-5.1V545H363.2z M258.1,537.9h-8.2v-13.2h8.2V537.9
		z M268.2,579.5c0,0.8-0.7,1.5-1.5,1.5c-0.8,0-1.5-0.7-1.5-1.5v-96.5c0-0.8,0.7-1.5,1.5-1.5c0.8,0,1.5,0.7,1.5,1.5V579.5z
		 M283.5,570.9h-8.2v-79.2h8.2V570.9z M293.6,579.5c0,0.8-0.7,1.5-1.5,1.5c-0.8,0-1.5-0.7-1.5-1.5v-96.5c0-0.8,0.7-1.5,1.5-1.5
		c0.8,0,1.5,0.7,1.5,1.5V579.5z M308.9,570.9h-8.2v-79.2h8.2V570.9z M319,579.5c0,0.8-0.7,1.5-1.5,1.5s-1.5-0.7-1.5-1.5v-96.5
		c0-0.8,0.7-1.5,1.5-1.5s1.5,0.7,1.5,1.5V579.5z M334.3,570.9h-8.2v-79.2h8.2V570.9z M344.4,579.5c0,0.8-0.7,1.5-1.5,1.5
		c-0.8,0-1.5-0.7-1.5-1.5v-96.5c0-0.8,0.7-1.5,1.5-1.5c0.8,0,1.5,0.7,1.5,1.5V579.5z M359.6,537.9h-8.2v-13.2h8.2V537.9z"/>
</g>
</svg>
