<?xml version="1.0" encoding="utf-8"?>
<!-- Generator: Adobe Illustrator 19.0.0, SVG Export Plug-In . SVG Version: 6.00 Build 0)  -->
<svg version="1.1" id="Layer_3" xmlns="http://www.w3.org/2000/svg" xmlns:xlink="http://www.w3.org/1999/xlink" x="0px" y="0px"
	 viewBox="-41 164.9 512 512" style="enable-background:new -41 164.9 512 512;" xml:space="preserve">
<style type="text/css">
	.st0{fill:#9DCD00;}
	.st1{fill:#00386C;}
</style>
<g>
	<g>
		<path class="st0" d="M242.4,269.2c2.9-4.8,4.6-10.4,4.6-16.3v-16c0-17.6-14.4-32-32-32c-17.6,0-32,14.4-32,32v16
			c0,6,1.8,11.5,4.6,16.3C167.2,271,151,288,151,308.9v7.8c3.3,4.7,16,16.1,16,16.1V309c0-13.2,10.8-24,24-24h48
			c13.2,0,24,10.8,24,24v23.8c0,0,11.3-9,16-16.1v-7.8C279,288,262.8,271,242.4,269.2z M231,252.9c0,8.8-7.2,16-16,16s-16-7.2-16-16
			v-16c0-8.8,7.2-16,16-16s16,7.2,16,16V252.9z"/>
		<path class="st0" d="M231,347.3c0,0,10.8-2.6,16-5.1v-25.3h-16V347.3z"/>
		<path class="st0" d="M183,342.2c5.2,2.5,16,5.1,16,5.1v-30.4h-16V342.2z"/>
		<path class="st0" d="M402.4,401.9c2.9-4.8,4.6-10.4,4.6-16.3v-16c0-17.6-14.4-32-32-32c-17.6,0-32,14.4-32,32v16
			c0,6,1.8,11.5,4.6,16.3c-20.5,1.7-36.6,18.8-36.6,39.7v7.8c3.3,4.7,16,16.1,16,16.1v-23.8c0-13.2,10.8-24,24-24h48
			c13.2,0,24,10.8,24,24v23.8c0,0,11.3-9,16-16.1v-7.8C439,420.7,422.8,403.6,402.4,401.9z M391,385.6c0,8.8-7.2,16-16,16
			s-16-7.2-16-16v-16c0-8.8,7.2-16,16-16s16,7.2,16,16V385.6z"/>
		<path class="st0" d="M391,479.9c0,0,10.8-2.6,16-5.1v-25.3h-16V479.9z"/>
		<path class="st0" d="M343,474.8c5.2,2.5,16,5.1,16,5.1v-30.4h-16V474.8z"/>
		<path class="st0" d="M82.4,401.9c2.9-4.8,4.6-10.4,4.6-16.3v-16c0-17.6-14.4-32-32-32s-32,14.4-32,32v16c0,6,1.8,11.5,4.6,16.3
			C7.2,403.6-9,420.7-9,441.6v7.8c3.3,4.7,16,16.1,16,16.1v-23.8c0-13.2,10.8-24,24-24h48c13.2,0,24,10.8,24,24v23.8
			c0,0,11.3-9,16-16.1v-7.8C119,420.7,102.8,403.6,82.4,401.9z M71,385.6c0,8.8-7.2,16-16,16s-16-7.2-16-16v-16c0-8.8,7.2-16,16-16
			s16,7.2,16,16V385.6z"/>
		<path class="st0" d="M71,479.9c0,0,10.8-2.6,16-5.1v-25.3H71V479.9z"/>
		<path class="st0" d="M23,474.8c5.2,2.5,16,5.1,16,5.1v-30.4H23V474.8z"/>
	</g>
	<g>
		<rect x="159" y="588.9" class="st1" width="112" height="16"/>
		<path class="st1" d="M151,340.3l0.7,0.6c16.9,14.9,39,24,63.3,24s46.4-9.1,63.3-24l0.7-0.6c19.6-17.6,32-43,32-71.4
			c0-52.9-43.1-96-96-96c-52.9,0-96,43.1-96,96C119,297.2,131.4,322.7,151,340.3z M215,188.9c44.1,0,80,35.9,80,80
			c0,17.9-6,34.4-16,47.8l-16,16.1c-4.9,3.7-10.3,6.9-16,9.4l-16,5.1c-5.2,1.1-10.5,1.6-16,1.6s-10.8-0.6-16-1.6
			c0,0-13.4-4.3-16-5.1c-5.7-2.5-11.1-5.7-16-9.4l-16-16.1c-10-13.4-16-29.9-16-47.8C135,224.8,170.9,188.9,215,188.9z"/>
		<path class="st1" d="M375,305.6c-52.9,0-96,43.1-96,96c0,28.3,12.4,53.8,32,71.4l0.7,0.6c16.9,14.9,39,24,63.3,24
			s46.4-9.1,63.3-24l0.7-0.6c19.6-17.6,32-43,32-71.4C471,348.6,427.9,305.6,375,305.6z M439,449.3l-16,16.1
			c-4.9,3.7-10.3,6.9-16,9.4l-16,5.1c-5.2,1.1-10.5,1.6-16,1.6s-10.8-0.6-16-1.6c0,0-13.4-4.3-16-5.1c-5.7-2.5-11.1-5.7-16-9.4
			l-16-16.1c-10-13.4-16-29.9-16-47.8c0-44.1,35.9-80,80-80c44.1,0,80,35.9,80,80C455,419.5,449,436,439,449.3z"/>
		<path class="st1" d="M118.3,473.6l0.7-0.6c19.6-17.6,32-43,32-71.4c0-53-43.1-96-96-96s-96,43.1-96,96c0,28.3,12.4,53.8,32,71.4
			l0.7,0.6c16.9,14.9,39,24,63.3,24S101.4,488.5,118.3,473.6z M23,474.8c-5.7-2.5-11.1-5.7-16-9.4l-16-16.1
			c-10-13.4-16-29.9-16-47.8c0-44.1,35.9-80,80-80s80,35.9,80,80c0,18-6,34.5-16,47.8l-16,16.1c-4.9,3.7-10.3,6.9-16,9.4l-16,5.1
			c-5.2,1.1-10.5,1.6-16,1.6s-10.8-0.6-16-1.6C39,479.9,25.6,475.6,23,474.8z"/>
		<path class="st1" d="M375,524.9h-32c-2.1,0-4.2,0.8-5.7,2.3l-8.2,8.2L303,483c-6.8-13.6-20.5-22.1-35.8-22.1H162.8
			c-15.2,0-28.9,8.5-35.8,22.1l-26.2,52.4l-8.2-8.2c-1.5-1.5-3.5-2.3-5.7-2.3H55c-4.4,0-8,3.6-8,8v32c0,4.4,3.6,8,8,8h8v24
			c0,13,6.3,24.5,16,31.8v32.2c0,4.4,3.6,8,8,8h48c4.4,0,8-3.6,8-8v-24h144v24c0,4.4,3.6,8,8,8h48c4.4,0,8-3.6,8-8v-32.2
			c9.7-7.3,16-18.8,16-31.8v-24h8c4.4,0,8-3.6,8-8v-32C383,528.5,379.4,524.9,375,524.9z M141.3,490.2c4.1-8.2,12.3-13.3,21.5-13.3
			h104.5c9.1,0,17.4,5.1,21.5,13.3l25.4,50.7H115.9L141.3,490.2z M69.1,556.9H63v-16h20.7l5.8,5.8L69.1,556.9z M79,569.7l8.6-4.2
			l39.4,13.1v10.2H79V569.7z M127,652.9H95v-16.8c2.6,0.5,5.3,0.8,8,0.8h24V652.9z M335,652.9h-32v-16h24c2.7,0,5.4-0.3,8-0.8V652.9
			z M327,620.9H103c-10.4,0-19.2-6.7-22.5-16H135c4.4,0,8-3.6,8-8v-24c0-3.4-2.2-6.5-5.5-7.6l-25.2-8.4h205.4l-25.2,8.4
			c-3.3,1.1-5.5,4.1-5.5,7.6v24c0,4.4,3.6,8,8,8h54.5C346.2,614.2,337.4,620.9,327,620.9z M351,588.9h-48v-10.2l39.4-13.1l8.6,4.3
			V588.9z M367,556.9h-6.1l-20.4-10.2l5.8-5.8H367V556.9z"/>
	</g>
</g>
</svg>
