<?xml version="1.0" encoding="utf-8"?>
<!-- Generator: Adobe Illustrator 19.0.0, SVG Export Plug-In . SVG Version: 6.00 Build 0)  -->
<svg version="1.1" id="Layer_1" xmlns="http://www.w3.org/2000/svg" xmlns:xlink="http://www.w3.org/1999/xlink" x="0px" y="0px"
	 viewBox="-41 164.9 512 512" style="enable-background:new -41 164.9 512 512;" xml:space="preserve">
<style type="text/css">
	.st0{fill:none;}
	.st1{fill:#00386C;}
	.st2{fill:#9DCD00;}
</style>
<rect x="79.1" y="254.9" class="st0" width="121.7" height="65.5"/>
<path class="st0" d="M19,646.9h241.8v-452H19V646.9z M152.6,572.3l-26.7-13.6l25-49.1H80l47.3-92.7l26.7,13.6l-25,49.1h70.9
	L152.6,572.3z M49.1,224.9h181.7v125.5H49.1V224.9z"/>
<g>
	<path class="st1" d="M230.8,224.9H49.1v125.5h181.7V224.9z M200.8,320.4H79.1v-65.5h121.7V320.4z"/>
	<path class="st1" d="M290.9,646.9v-30l0-30V164.9H-11v482h-30v30h361.9v-30H290.9z M260.9,646.9H19v-452h241.8V646.9z"/>
</g>
<g>
	<polygon class="st2" points="154,430.5 127.3,416.9 80,509.6 150.9,509.6 125.8,558.7 152.6,572.3 199.9,479.6 129,479.6 	"/>
	<path class="st2" d="M441,214.9v-50.1h-30v50.1h-30v-50.1h-30v50.1h-30v52.9c0,36.2,25.8,66.6,60,73.5V544
		c0,23.6-19.2,42.8-42.8,42.8h-47.3l0,30h47.3c40.1,0,72.8-32.7,72.8-72.8V341.4c34.2-7,60-37.3,60-73.5v-52.9H441z M441,267.8
		c0,24.8-20.2,45-45,45s-45-20.2-45-45v-22.9H441V267.8z"/>
</g>
</svg>
