<?xml version="1.0" encoding="utf-8"?>
<!-- Generator: Adobe Illustrator 19.0.0, SVG Export Plug-In . SVG Version: 6.00 Build 0)  -->
<svg version="1.1" id="Layer_1" xmlns="http://www.w3.org/2000/svg" xmlns:xlink="http://www.w3.org/1999/xlink" x="0px" y="0px"
	 viewBox="-247 370.9 100 100" style="enable-background:new -247 370.9 100 100;" xml:space="preserve">
<style type="text/css">
	.st0{fill:#9DCD00;}
	.st1{fill:#00386C;}
</style>
<title>Artboard 2</title>
<g>
	<path class="st0" d="M-150.6,414.1c0.1-0.1,0.1-0.2,0.1-0.3v-0.1c0-0.2,0-0.3,0-0.5l0,0c0-0.1-0.1-0.2-0.1-0.3c0,0,0-0.1,0-0.1l0,0
		l-13.3-20.6l-0.2-0.3v-0.1c-0.1-0.1-0.3-0.2-0.4-0.3l0,0l0,0c-0.1-0.1-0.3-0.1-0.5-0.1H-229c-0.2,0-0.3,0-0.5,0.1l0,0l0,0
		c-0.1,0.1-0.3,0.2-0.4,0.3l0,0c-0.1,0.1-0.1,0.1-0.2,0.2l-13.3,20.6l0,0c0,0,0,0.1,0,0.1c-0.1,0.1-0.1,0.2-0.1,0.3l0,0
		c0,0.2,0,0.3,0,0.5v0.1c0,0.1,0.1,0.2,0.1,0.3v0.1l0,0l45.3,56.6l0,0c0.1,0.1,0.3,0.2,0.4,0.3h0.1c0.3,0.2,0.7,0.2,1.1,0h0.1
		c0.2-0.1,0.3-0.2,0.4-0.3l0,0l45.2-56.3l0,0L-150.6,414.1z M-218.4,414.7h42.7l-21.4,51.6L-218.4,414.7z M-229.3,395.6l6.8,16.4
		h-17.3L-229.3,395.6z M-193.4,394.1h26.3l-7,17L-193.4,394.1z M-177.2,411.9h-39.6l19.8-17.4L-177.2,411.9z M-219.9,411l-7-16.9
		h26.2L-219.9,411z M-164.8,395.6l10.5,16.3h-17.3L-164.8,395.6z M-221.4,414.7l19.4,46.8l-37.5-46.8H-221.4z M-192.1,461.5
		l19.4-46.8h18.1L-192.1,461.5z"/>
	<g>
		<path class="st1" d="M-197,370.9c-0.8,0-1.4,0.6-1.4,1.4v11.4c0,0.8,0.6,1.4,1.4,1.4c0.8,0,1.4-0.6,1.4-1.4v-11.4
			C-195.7,371.5-196.3,370.9-197,370.9z"/>
		<path class="st1" d="M-173.9,376c-0.5-0.5-1.4-0.5-1.9,0c0,0,0,0,0,0l-8,8c-0.5,0.5-0.5,1.4,0,1.9c0.3,0.3,0.6,0.4,1,0.4
			c0.4,0,0.7-0.1,1-0.4l8-8C-173.3,377.4-173.3,376.6-173.9,376z"/>
		<path class="st1" d="M-218.2,376c-0.5-0.5-1.4-0.5-1.9,0c0,0,0,0,0,0c-0.5,0.5-0.5,1.4,0,1.9l8.1,8c0.5,0.5,1.4,0.5,1.9,0
			c0.5-0.5,0.5-1.4,0-1.9L-218.2,376z"/>
	</g>
</g>
</svg>
