<?xml version="1.0" encoding="utf-8"?>
<!-- Generator: Adobe Illustrator 19.0.0, SVG Export Plug-In . SVG Version: 6.00 Build 0)  -->
<svg version="1.1" id="Layer_1" xmlns="http://www.w3.org/2000/svg" xmlns:xlink="http://www.w3.org/1999/xlink" x="0px" y="0px"
	 viewBox="-41 164.9 512 512" style="enable-background:new -41 164.9 512 512;" xml:space="preserve">
<style type="text/css">
	.st0{fill:#9DCD00;}
	.st1{fill:#00386C;}
</style>
<g>
	<path class="st0" d="M466.4,329.5c-138.8-138.8-363.9-138.8-502.7,0c-5.7,6.1-5.7,15.6,0,21.7c6,6.4,16,6.8,22.5,0.8
		c126.4-126.4,331.3-126.4,457.7,0c6.2,6.2,16.3,6.2,22.5,0C472.5,345.8,472.6,335.7,466.4,329.5z"/>
	<path class="st0" d="M400.3,395.5c-0.1-0.1-0.2-0.2-0.3-0.3C297.6,293,131.8,293.1,29.6,395.5c-5.1,6-5.1,14.7,0,20.7
		c5.7,6.7,15.8,7.4,22.4,1.7c0.1-0.1,0.2-0.2,0.3-0.3c90-89.8,235.7-89.7,325.5,0.3c6.1,5.7,15.6,5.7,21.7,0c6.4-6,6.8-16,0.8-22.5
		V395.5z"/>
	<path class="st0" d="M334.6,461.2c-0.1-0.1-0.2-0.2-0.2-0.2c-66-65.9-173-65.8-238.9,0.2c-5.7,6.1-5.7,15.6,0,21.7
		c6,6.4,16,6.8,22.5,0.8c53.7-53.4,140.5-53.4,194.2,0c6.1,5.7,15.6,5.7,21.7,0c6.4-6,6.8-16,0.8-22.5H334.6z"/>
</g>
<path class="st1" d="M214.9,504.8c-30.8,0-55.8,25-55.8,55.8s25,55.8,55.8,55.8s55.8-25,55.8-55.8S245.8,504.8,214.9,504.8
	L214.9,504.8z"/>
</svg>
