<?xml version="1.0" encoding="utf-8"?>
<!-- Generator: Adobe Illustrator 19.0.0, SVG Export Plug-In . SVG Version: 6.00 Build 0)  -->
<svg version="1.1" id="Layer_1" xmlns="http://www.w3.org/2000/svg" xmlns:xlink="http://www.w3.org/1999/xlink" x="0px" y="0px"
	 viewBox="-57 180.9 480 480" style="enable-background:new -57 180.9 480 480;" xml:space="preserve">
<style type="text/css">
	.st0{fill:#9DCD00;}
	.st1{fill:#00386C;}
</style>
<g>
	<g>
		<path class="st0" d="M199.1,180.9h-16c0,1.9-0.5,2.6-2.9,5.1c-4.7,4.1-7.3,10-7.3,16.2s2.7,12.1,7.3,16.2c2.3,2.4,2.9,3.1,2.9,5.1
			s-0.6,2.7-2.9,5.1c-4.6,4.1-7.3,10-7.3,16.2h16c0-2,0.6-2.7,2.9-5.1c4.7-4.1,7.3-10,7.3-16.2s-2.7-12.1-7.3-16.2
			c-2.3-2.4-2.9-3.1-2.9-5.1s0.5-2.6,2.9-5.1C196.4,193,199.1,187.1,199.1,180.9z"/>
		<path class="st0" d="M255.1,180.9h-16c0,1.9-0.5,2.6-2.9,5.1c-4.7,4.1-7.3,10-7.3,16.2s2.7,12.1,7.3,16.2c2.3,2.4,2.9,3.1,2.9,5.1
			s-0.6,2.7-2.9,5.1c-4.6,4.1-7.3,10-7.3,16.2h16c0-2,0.6-2.7,2.9-5.1c4.7-4.1,7.3-10,7.3-16.2s-2.7-12.1-7.3-16.2
			c-2.3-2.4-2.9-3.1-2.9-5.1s0.5-2.6,2.9-5.1C252.4,193,255.1,187.1,255.1,180.9z"/>
		<path class="st0" d="M303.8,207.3c-2.3-2.4-2.9-3.1-2.9-5.1s0.5-2.6,2.9-5.1c4.6-4.1,7.3-10,7.4-16.2h-16c0,1.9-0.5,2.6-2.9,5.1
			c-4.7,4.1-7.3,10-7.3,16.2s2.7,12.1,7.3,16.2c2.3,2.4,2.9,3.1,2.9,5.1s-0.6,2.7-2.9,5.1c-4.6,4.1-7.3,10-7.3,16.2h16
			c0-2,0.6-2.7,2.9-5.1c4.7-4.1,7.3-10,7.3-16.2S308.4,211.4,303.8,207.3z"/>
		<path class="st0" d="M87.1,180.9h-16c0,1.9-0.5,2.6-2.9,5.1c-4.7,4.1-7.3,10-7.3,16.2s2.7,12.1,7.3,16.2c2.3,2.4,2.9,3.1,2.9,5.1
			s-0.6,2.7-2.9,5.1c-4.6,4.1-7.3,10-7.3,16.2h16c0-2,0.6-2.7,2.9-5.1c4.7-4.1,7.3-10,7.3-16.2s-2.7-12.1-7.3-16.2
			c-2.3-2.4-2.9-3.1-2.9-5.1s0.5-2.6,2.9-5.1C84.4,193,87.1,187.1,87.1,180.9z"/>
		<path class="st0" d="M143.1,180.9h-16c0,1.9-0.5,2.6-2.9,5.1c-4.7,4.1-7.3,10-7.3,16.2s2.7,12.1,7.3,16.2c2.3,2.4,2.9,3.1,2.9,5.1
			s-0.6,2.7-2.9,5.1c-4.6,4.1-7.3,10-7.3,16.2h16c0-2,0.6-2.7,2.9-5.1c4.7-4.1,7.3-10,7.3-16.2s-2.7-12.1-7.3-16.2
			c-2.3-2.4-2.9-3.1-2.9-5.1s0.5-2.6,2.9-5.1C140.4,193,143.1,187.1,143.1,180.9z"/>
	</g>
	<path class="st1" d="M367,476.9c4.4,0,8-3.6,8-8v-64c0-4.4-3.6-8-8-8h-40v-112c0-13.3-10.7-24-24-24s-24,10.7-24,24v8h-32v-8
		c0-13.3-10.7-24-24-24s-24,10.7-24,24v8h-32v-8c0-13.3-10.7-24-24-24s-24,10.7-24,24v8H87v-8c0-13.3-10.7-24-24-24s-24,10.7-24,24
		v112H-1c-4.4,0-8,3.6-8,8v64c0,4.4,3.6,8,8,8h8v168H-9v16h48v-16H23v-168h16v112c0,13.3,10.7,24,24,24s24-10.7,24-24v-8h32v8
		c0,13.3,10.7,24,24,24s24-10.7,24-24v-8h32v8c0,13.3,10.7,24,24,24s24-10.7,24-24v-8h32v8c0,13.3,10.7,24,24,24s24-10.7,24-24v-112
		h16v168h-16v16h48v-16h-16v-168H367z M39,460.9H7v-48h32V460.9z M71,588.9c0,4.4-3.6,8-8,8s-8-3.6-8-8v-304c0-4.4,3.6-8,8-8
		s8,3.6,8,8V588.9z M119,564.9H87v-256h32V564.9z M151,588.9c0,4.4-3.6,8-8,8s-8-3.6-8-8v-304c0-4.4,3.6-8,8-8s8,3.6,8,8V588.9z
		 M199,564.9h-32v-256h32V564.9z M231,588.9c0,4.4-3.6,8-8,8s-8-3.6-8-8v-304c0-4.4,3.6-8,8-8s8,3.6,8,8V588.9z M279,564.9h-32v-256
		h32V564.9z M311,588.9c0,4.4-3.6,8-8,8s-8-3.6-8-8v-304c0-4.4,3.6-8,8-8s8,3.6,8,8V588.9z M327,460.9v-48h32v48H327z"/>
</g>
</svg>
