<?xml version="1.0" encoding="utf-8"?>
<!-- Generator: Adobe Illustrator 19.0.0, SVG Export Plug-In . SVG Version: 6.00 Build 0)  -->
<svg version="1.1" id="Layer_1" xmlns="http://www.w3.org/2000/svg" xmlns:xlink="http://www.w3.org/1999/xlink" x="0px" y="0px"
	 viewBox="-247 370.9 100 100" style="enable-background:new -247 370.9 100 100;" xml:space="preserve">
<style type="text/css">
	.st0{fill:#00386C;}
	.st1{fill:#9DCD00;}
</style>
<title>048 - monitor home power</title>
<desc>Created with Sketch.</desc>
<g>
	<path class="st0" d="M-147.5,414.7L-194,372c-1.7-1.5-4.3-1.5-5.9,0l-27,24.8v-11.8c0-0.9-0.7-1.7-1.7-1.7s-1.7,0.7-1.7,1.7v14.8
		l-16.1,14.8c-0.7,0.6-0.7,1.7-0.1,2.4c0.6,0.7,1.7,0.7,2.4,0.1l46.4-42.6c0.4-0.4,1.1-0.4,1.5,0l46.5,42.6c0.7,0.6,1.7,0.6,2.4-0.1
		C-146.8,416.3-146.9,415.3-147.5,414.7z"/>
	<path class="st0" d="M-163.7,414.2c-0.9,0-1.7,0.7-1.7,1.7v51.1c0,0.3-0.2,0.6-0.6,0.6h-62.2c-0.3,0-0.6-0.3-0.6-0.6v-51.1
		c0-0.9-0.7-1.7-1.7-1.7s-1.7,0.7-1.7,1.7v51.1c0,2.2,1.7,3.9,3.9,3.9h62.2c2.2,0,3.9-1.8,3.9-3.9v-51.1
		C-162,415-162.7,414.2-163.7,414.2z"/>
</g>
<g>
	<path class="st1" d="M-186.3,417.6h-4v-4.2c0-1.4-1.1-2.5-2.5-2.5h-8.3c-1.4,0-2.5,1.1-2.5,2.5v4.2h-4c-1.5,0-2.7,1.2-2.7,2.7v34.7
		c0,1.5,1.2,2.7,2.7,2.7h21.3c1.5,0,2.7-1.2,2.7-2.7v-34.7C-183.7,418.8-184.9,417.6-186.3,417.6z M-200.3,414.2h6.7v3.3h-6.7V414.2
		z M-187,454.2h-20v-33.3h20V454.2z"/>
	<path class="st1" d="M-200.3,449.2h6.7c0.9,0,1.7-0.7,1.7-1.7s-0.7-1.7-1.7-1.7h-6.7c-0.9,0-1.7,0.7-1.7,1.7
		S-201.3,449.2-200.3,449.2z"/>
	<path class="st1" d="M-200.3,442.6h6.7c0.9,0,1.7-0.7,1.7-1.7s-0.7-1.7-1.7-1.7h-6.7c-0.9,0-1.7,0.7-1.7,1.7
		S-201.3,442.6-200.3,442.6z"/>
	<path class="st1" d="M-200.3,435.9h6.7c0.9,0,1.7-0.7,1.7-1.7s-0.7-1.7-1.7-1.7h-6.7c-0.9,0-1.7,0.7-1.7,1.7
		S-201.3,435.9-200.3,435.9z"/>
	<path class="st1" d="M-200.3,429.2h6.7c0.9,0,1.7-0.7,1.7-1.7s-0.7-1.7-1.7-1.7h-6.7c-0.9,0-1.7,0.7-1.7,1.7
		S-201.3,429.2-200.3,429.2z"/>
</g>
</svg>
