<?xml version="1.0" encoding="utf-8"?>
<!-- Generator: Adobe Illustrator 19.0.0, SVG Export Plug-In . SVG Version: 6.00 Build 0)  -->
<svg version="1.1" id="Layer_1" xmlns="http://www.w3.org/2000/svg" xmlns:xlink="http://www.w3.org/1999/xlink" x="0px" y="0px"
	 viewBox="-41 164.9 512 512" style="enable-background:new -41 164.9 512 512;" xml:space="preserve">
<style type="text/css">
	.st0{fill:none;}
	.st1{fill:#00386C;}
	.st2{fill:#9DCD00;}
</style>
<g>
	<path class="st0" d="M47.1,297.3v-20.4c0-17.7,14.3-32,32-32h37.8c-7-19.2-25.3-32-45.8-32C24.7,212.9,2.8,276,47.1,297.3z"/>
	<g>
		<path class="st1" d="M69.9,481.8c-4,0.6-6.8,4.2-6.8,8.2v125.9c0,4.4,3.6,8,8,8s8-3.6,8-8V489.7C79.1,484.9,74.9,481.1,69.9,481.8
			z"/>
		<path class="st1" d="M171.3,268.9c-6.5,0.5-3.8,2.1-51.4,64H63.1c-13.3,0-24,10.7-24,24s10.7,24,24,24h65
			c9.9,0,19.2-4.5,25.3-12.4l28-35.9C203,304.7,183.2,268.1,171.3,268.9z M128.1,364.9h-65c-4.4,0-8-3.6-8-8s3.6-8,8-8
			c60.9-1.1,62.9,2.5,67.1-3.2L139,334l13.8,9.2C143,353.9,140.1,364.9,128.1,364.9z M162.7,330.5l-14-9.4l23.1-30.9
			C182.9,312.2,164.2,327.3,162.7,330.5z"/>
		<path class="st1" d="M191.1,364.9c-4.4,0-8,3.6-8,8v64c0,4.4,3.6,8,8,8s8-3.6,8-8v-64C199.1,368.5,195.5,364.9,191.1,364.9z"/>
		<path class="st1" d="M104.3,397c-4.9-0.7-9.2,3.1-9.2,7.9v32h-72v-88c0-21,16.1-32,32-32c3.4,0,6.4-2.2,7.6-5.4
			c0.7-1.9,0.4-0.2,0.4-34.6c0-8.8,7.2-16,16-16h32v16c0,13.2-10.8,24-24,24c-4.4,0-8,3.6-8,8c0,18.2,48,5.2,48-32v-16
			c4.4,0,8-3.6,8-8c0-0.4,0-0.8-0.1-1.1c-4.5-31.3-32-54.9-63.9-54.9c-59.8,0-87.7,77.3-39.6,109.8c-14.8,8-24.4,23.5-24.4,42.2
			c3.1,88.7-8.5,116,16,154.4v112.6c0,4.4,3.6,8,8,8s8-3.6,8-8v-115c0-6.2-13.9-16.3-15.8-48h71.8v163c0,4.4,3.6,8,8,8s8-3.6,8-8
			V405.1C111.1,401.1,108.3,397.5,104.3,397z M71.1,212.9c20.5,0,38.8,12.8,45.8,32H79.1c-17.7,0-32,14.3-32,32v20.4
			C2.8,276,24.7,212.9,71.1,212.9z"/>
	</g>
	<g>
		<path class="st2" d="M415.1,164.9h-256c-4.4,0-8,3.6-8,8v72c0,4.4,3.6,8,8,8c4.4,0,8-3.6,8-8v-64h240v440c0,4.4,3.6,8,8,8
			s8-3.6,8-8v-448C423.1,168.5,419.5,164.9,415.1,164.9z"/>
		<path class="st2" d="M415.1,660.9h-248v-264c0-4.4-3.6-8-8-8c-4.4,0-8,3.6-8,8v272c0,4.4,3.6,8,8,8h256c4.4,0,8-3.6,8-8
			S419.5,660.9,415.1,660.9z"/>
		<path class="st2" d="M218.8,229.7c-3.9-2-8.8-0.4-10.8,3.5c0,0,0,0.1-0.1,0.1l-8,16c-2,4-0.4,8.8,3.6,10.7
			c1.1,0.5,2.3,0.8,3.6,0.8c8,0,8.3-8.9,15.2-20.4C224.3,236.5,222.7,231.7,218.8,229.7z"/>
		<path class="st2" d="M227.5,269.7l-16,8c-9.4,4.7-2.4,19.1,7.2,14.3l16-8c4-2,5.6-6.8,3.6-10.7
			C236.3,269.4,231.5,267.8,227.5,269.7z"/>
		<path class="st2" d="M234.7,317.7l-16-8c-3.9-2-8.8-0.4-10.8,3.5s-0.4,8.8,3.5,10.8c0,0,0.1,0,0.1,0.1c15.8,7.6,16.3,8.8,19.6,8.8
			c4.4,0,8-3.6,8-8C239.1,321.9,237.4,319.1,234.7,317.7z"/>
		<path class="st2" d="M113.7,629.8l-2.6-0.9h-16h-16h-16h-24h-16v32c0,8.8,7.2,16,16,16h88c4.4,0,8-3.6,8-8
			C135.1,653,128.3,636.2,113.7,629.8z M39.1,660.9v-16h24c10.2,0,19.2,6.4,22.6,16H39.1z M102.3,660.9c-1.2-5.8-3.7-11.3-7.2-16
			l0,0c10.2,0,19.2,6.4,22.6,16H102.3z"/>
	</g>
</g>
</svg>
