<?xml version="1.0" encoding="utf-8"?>
<!-- Generator: Adobe Illustrator 19.0.0, SVG Export Plug-In . SVG Version: 6.00 Build 0)  -->
<svg version="1.1" id="Layer_1" xmlns="http://www.w3.org/2000/svg" xmlns:xlink="http://www.w3.org/1999/xlink" x="0px" y="0px"
	 viewBox="-49 172.9 496 496" style="enable-background:new -49 172.9 496 496;" xml:space="preserve">
<style type="text/css">
	.st0{fill:#9DCD00;}
	.st1{fill:#00386C;}
</style>
<g>
	<g>
		<path class="st0" d="M206.4,583.9V404.8h-16v179.1c-20,3.7-35.1,21.2-35.1,42.1c0,23.6,19.4,42.9,43.1,42.9s43.2-19.2,43.2-42.9
			C241.5,605.1,226.4,587.6,206.4,583.9z M198.4,652.9c-15,0-27.2-12.1-27.2-26.9s12.2-26.9,27.1-26.9s27.2,12.1,27.2,26.9
			C225.5,640.8,213.4,652.9,198.4,652.9z"/>
		<path class="st0" d="M371.5,511.4V364.1c0-4.4-3.6-8-8-8h-78.2v16h70.2v139.2c-20,3.7-35.1,21.2-35.1,42.1
			c0,23.6,19.3,42.9,43.1,42.9s43.1-19.2,43.1-42.9C406.7,532.6,391.5,515.1,371.5,511.4z M363.5,580.4c-15,0-27.1-12.1-27.1-26.9
			s12.2-26.9,27.1-26.9s27.1,12.1,27.1,26.9S378.5,580.4,363.5,580.4z"/>
		<path class="st0" d="M25.8,364.1v140.3c-20,3.7-35.1,21.2-35.1,42.1c0,23.6,19.4,42.9,43.1,42.9S77,570.2,77,546.6
			c0-20.9-15.2-38.4-35.1-42.1V372.1H112v-16H33.8C29.4,356.1,25.8,359.7,25.8,364.1z M61,546.6c0,14.8-12.2,26.9-27.1,26.9
			s-27.1-12-27.1-26.9s12.2-26.9,27.1-26.9S61,531.8,61,546.6z"/>
	</g>
	<g>
		<path class="st1" d="M198.4,172.9c-66.6,0-120.8,53.8-120.8,120c0,66.2,54.2,120,120.8,120c66.6,0,120.8-53.8,120.8-120
			S265,172.9,198.4,172.9z M198.4,396.8c-57.8,0-104.8-46.6-104.8-104s47-104,104.8-104c57.8,0,104.8,46.6,104.8,104
			S256.2,396.8,198.4,396.8z"/>
		<path class="st1" d="M187.5,320.2l-34.3-31.4l-10.8,11.8l40,36.7c1.5,1.4,3.5,2.1,5.4,2.1c2.1,0,4.2-0.8,5.8-2.4l76.7-79.4
			l-11.5-11.1L187.5,320.2z"/>
	</g>
</g>
</svg>
