<?xml version="1.0" encoding="utf-8"?>
<!-- Generator: Adobe Illustrator 19.0.0, SVG Export Plug-In . SVG Version: 6.00 Build 0)  -->
<svg version="1.1" id="Layer_3" xmlns="http://www.w3.org/2000/svg" xmlns:xlink="http://www.w3.org/1999/xlink" x="0px" y="0px"
	 viewBox="-41 164.9 512 512" style="enable-background:new -41 164.9 512 512;" xml:space="preserve">
<style type="text/css">
	.st0{fill:#9DCD00;}
	.st1{fill:#00386C;}
</style>
<g>
	<path class="st0" d="M167,324.8V301c0-13.2,10.8-24,24-24h48c13.2,0,24,10.8,24,24v23.8c0,0,11.3-9,16-16.1v-7.8
		c0-20.9-16.2-37.9-36.6-39.7c2.9-4.8,4.6-10.4,4.6-16.3v-16c0-17.6-14.4-32-32-32c-17.6,0-32,14.4-32,32v16c0,6,1.8,11.5,4.6,16.3
		C167.2,263,151,280,151,300.9v7.8C154.3,313.4,167,324.8,167,324.8z M199,228.9c0-8.8,7.2-16,16-16s16,7.2,16,16v16
		c0,8.8-7.2,16-16,16s-16-7.2-16-16V228.9z"/>
	<path class="st0" d="M231,339.3c0,0,10.8-2.6,16-5.1v-25.3h-16V339.3z"/>
	<path class="st0" d="M183,334.2c5.2,2.5,16,5.1,16,5.1v-30.4h-16V334.2z"/>
	<path class="st0" d="M402.4,582.7c2.9-4.8,4.6-10.4,4.6-16.3v-16c0-17.6-14.4-32-32-32c-17.6,0-32,14.4-32,32v16
		c0,6,1.8,11.5,4.6,16.3c-20.5,1.7-36.6,18.8-36.6,39.7v7.8c3.3,4.7,16,16.1,16,16.1v-23.8c0-13.2,10.8-24,24-24h48
		c13.2,0,24,10.8,24,24v23.8c0,0,11.3-9,16-16.1v-7.8C439,601.5,422.8,584.4,402.4,582.7z M391,566.4c0,8.8-7.2,16-16,16
		s-16-7.2-16-16v-16c0-8.8,7.2-16,16-16s16,7.2,16,16V566.4z"/>
	<path class="st0" d="M391,660.7c0,0,10.8-2.6,16-5.1v-25.3h-16V660.7z"/>
	<path class="st0" d="M343,655.6c5.2,2.5,16,5.1,16,5.1v-30.4h-16V655.6z"/>
	<path class="st0" d="M82.4,582.7c2.9-4.8,4.6-10.4,4.6-16.3v-16c0-17.6-14.4-32-32-32s-32,14.4-32,32v16c0,6,1.8,11.5,4.6,16.3
		C7.2,584.4-9,601.5-9,622.4v7.8c3.3,4.7,16,16.1,16,16.1v-23.8c0-13.2,10.8-24,24-24h48c13.2,0,24,10.8,24,24v23.8
		c0,0,11.3-9,16-16.1v-7.8C119,601.5,102.8,584.4,82.4,582.7z M71,566.4c0,8.8-7.2,16-16,16s-16-7.2-16-16v-16c0-8.8,7.2-16,16-16
		s16,7.2,16,16V566.4z"/>
	<path class="st0" d="M71,660.7c0,0,10.8-2.6,16-5.1v-25.3H71V660.7z"/>
	<path class="st0" d="M23,655.6c5.2,2.5,16,5.1,16,5.1v-30.4H23V655.6z"/>
	<path class="st0" d="M215,364.4c-52.9,0-96,43.1-96,96c0,28.3,12.4,53.8,32,71.4l0.7,0.6c16.9,14.9,39,24,63.3,24s46.4-9.1,63.3-24
		l0.7-0.6c19.6-17.6,32-43,32-71.4C311,407.5,267.9,364.4,215,364.4z M279,508.2l-16,16.1c-4.9,3.7-10.3,6.9-16,9.4l-16,5.1
		c-5.2,1.1-10.5,1.6-16,1.6s-10.8-0.6-16-1.6c0,0-13.4-4.3-16-5.1c-5.7-2.5-11.1-5.7-16-9.4l-16-16.1c-10-13.4-16-29.9-16-47.8
		c0-44.1,35.9-80,80-80c44.1,0,80,35.9,80,80C295,478.3,289,494.8,279,508.2z"/>
</g>
<g>
	<path class="st1" d="M311,260.9c0-52.9-43.1-96-96-96c-52.9,0-96,43.1-96,96c0,28.3,12.4,53.8,32,71.4l0.7,0.6
		c16.9,14.9,39,24,63.3,24s46.4-9.1,63.3-24l0.7-0.6C298.6,314.7,311,289.3,311,260.9z M263,324.8c-4.9,3.7-10.3,6.9-16,9.4l-16,5.1
		c-5.2,1.1-10.5,1.6-16,1.6s-10.8-0.6-16-1.6c0,0-13.4-4.3-16-5.1c-5.7-2.5-11.1-5.7-16-9.4l-16-16.1c-10-13.4-16-29.9-16-47.8
		c0-44.1,35.9-80,80-80c44.1,0,80,35.9,80,80c0,17.9-6,34.4-16,47.8L263,324.8z"/>
	<path class="st1" d="M375,486.4c-52.9,0-96,43.1-96,96c0,28.3,12.4,53.8,32,71.4l0.7,0.6c16.9,14.9,39,24,63.3,24s46.4-9.1,63.3-24
		l0.7-0.6c19.6-17.6,32-43,32-71.4C471,529.4,427.9,486.4,375,486.4z M439,630.1l-16,16.1c-4.9,3.7-10.3,6.9-16,9.4l-16,5.1
		c-5.2,1.1-10.5,1.6-16,1.6s-10.8-0.6-16-1.6c0,0-13.4-4.3-16-5.1c-5.7-2.5-11.1-5.7-16-9.4l-16-16.1c-10-13.4-16-29.9-16-47.8
		c0-44.1,35.9-80,80-80c44.1,0,80,35.9,80,80C455,600.3,449,616.8,439,630.1z"/>
	<path class="st1" d="M55,486.4c-52.9,0-96,43.1-96,96c0,28.3,12.4,53.8,32,71.4l0.7,0.6c16.9,14.9,39,24,63.3,24s46.4-9.1,63.3-24
		l0.7-0.6c19.6-17.6,32-43,32-71.4C151,529.4,107.9,486.4,55,486.4z M119,630.1l-16,16.1c-4.9,3.7-10.3,6.9-16,9.4l-16,5.1
		c-5.2,1.1-10.5,1.6-16,1.6s-10.8-0.6-16-1.6c0,0-13.4-4.3-16-5.1c-5.7-2.5-11.1-5.7-16-9.4l-16-16.1c-10-13.4-16-29.9-16-47.8
		c0-44.1,35.9-80,80-80s80,35.9,80,80C135,600.3,129,616.8,119,630.1z"/>
	<path class="st1" d="M251.2,429.4l-55.3,55.3L173,461.7c-3.6-3.6-9.4-3.6-13,0c-3.6,3.6-3.6,9.4,0,13l29.4,29.4
		c3.6,3.6,9.4,3.6,13,0l61.8-61.8c3.6-3.6,3.6-9.4,0-13C260.6,425.8,254.8,425.8,251.2,429.4z"/>
</g>
</svg>
