<?xml version="1.0" encoding="utf-8"?>
<!-- Generator: Adobe Illustrator 19.0.0, SVG Export Plug-In . SVG Version: 6.00 Build 0)  -->
<svg version="1.1" id="Layer_1" xmlns="http://www.w3.org/2000/svg" xmlns:xlink="http://www.w3.org/1999/xlink" x="0px" y="0px"
	 viewBox="-247 370.9 100 100" style="enable-background:new -247 370.9 100 100;" xml:space="preserve">
<style type="text/css">
	.st0{fill:#00386C;}
	.st1{fill:#9DCD00;}
</style>
<g>
	<path class="st0" d="M-163.6,401v4.2l5.9,5.9l-5.9,5.8l-3,3l-30.3,30.3l-30.3-30.3l-3-3l-5.8-5.8l5.8-5.9V401
		c-9.1,9.2-9.7,9.4-9.5,10.2v52.9c0,1.5,0.6,2.9,1.5,3.8s2.3,1.5,3.8,1.5h74.8c1.5,0,2.9-0.6,3.8-1.5c0.9-0.9,1.5-2.3,1.5-3.8v-52.9
		C-154,410.1-154.2,410.6-163.6,401z M-236.6,464.2V464v-49.2l24.5,24.7L-236.6,464.2z M-159.5,466.3h-74.8h-0.2l24.7-24.7
		l11.8,11.8c0.6,0.6,1.5,0.6,2.1,0l11.8-11.8l24.7,24.7H-159.5z M-157.1,463.9v0.2l-24.7-24.5l24.7-24.7V463.9z"/>
	<g>
		<path class="st1" d="M-174.2,414.2h-45.3c-0.9,0-1.5,0.6-1.5,1.5s0.6,1.5,1.5,1.5h45.3c0.9,0,1.5-0.6,1.5-1.5
			C-172.7,414.8-173.3,414.2-174.2,414.2z"/>
		<path class="st1" d="M-174.2,382h-45.3c-0.9,0-1.5,0.6-1.5,1.5s0.6,1.5,1.5,1.5h45.3c0.9,0,1.5-0.6,1.5-1.5S-173.3,382-174.2,382z
			"/>
		<path class="st1" d="M-185.4,425h-23c-0.9,0-1.5,0.6-1.5,1.5s0.6,1.5,1.5,1.5h23c0.9,0,1.5-0.6,1.5-1.5S-184.6,425-185.4,425z"/>
		<path class="st1" d="M-174.2,392.7h-45.3c-0.9,0-1.5,0.6-1.5,1.5s0.6,1.5,1.5,1.5h45.3c0.9,0,1.5-0.6,1.5-1.5
			C-172.7,393.3-173.3,392.7-174.2,392.7z"/>
		<path class="st1" d="M-174.2,403.5h-45.3c-0.9,0-1.5,0.6-1.5,1.5s0.6,1.5,1.5,1.5h45.3c0.9,0,1.5-0.6,1.5-1.5
			S-173.3,403.5-174.2,403.5z"/>
		<path class="st1" d="M-168.1,372.4h-57.6c-2.6,0-4.5,2.1-4.5,4.5V401v4.2V417l3,3v-43c0-0.8,0.6-1.5,1.5-1.5h57.6
			c0.9,0,1.5,0.8,1.5,1.5v43l3-3v-11.7V401v-24C-163.6,374.4-165.7,372.4-168.1,372.4z"/>
	</g>
</g>
</svg>
