<?xml version="1.0" encoding="utf-8"?>
<!-- Generator: Adobe Illustrator 19.0.0, SVG Export Plug-In . SVG Version: 6.00 Build 0)  -->
<svg version="1.1" id="Capa_1" xmlns="http://www.w3.org/2000/svg" xmlns:xlink="http://www.w3.org/1999/xlink" x="0px" y="0px"
	 viewBox="-41 164.9 512 512" style="enable-background:new -41 164.9 512 512;" xml:space="preserve">
<style type="text/css">
	.st0{fill:#00386C;}
	.st1{fill:#9DCD00;}
</style>
<g>
	<path class="st0" d="M326.7,424.5v-196c0-21.8-17.8-39.6-39.6-39.6H-1.4c-21.8,0-39.6,17.8-39.6,39.6v320.7c0,4.1,3.4,7.5,7.5,7.5
		h24.6v88.7c0,4.1,3.4,7.5,7.5,7.5h320.7c4.1,0,7.5-3.4,7.5-7.5V536c0-4.2-3.4-7.5-7.5-7.5c-4.1,0-7.5,3.3-7.5,7.5v101.9H38.1V252
		h273.6v187.5L326.7,424.5z M-8.9,252.5v289.1H-26V228.5c0-13.5,11-24.6,24.6-24.6c13.5,0,24.6,11,24.6,24.6v8.5H6.6
		C-2,237-8.9,244-8.9,252.5z M6.1,252.5c0-0.3,0.2-0.5,0.5-0.5h16.5v385.8H6.1V252.5z M38.1,237v-8.5c0-9.3-3.2-17.8-8.6-24.6h257.6
		c13.5,0,24.6,11,24.6,24.6v8.5H38.1z"/>
</g>
<g>
	<path class="st1" d="M86.7,332.2h176.4c4.1,0,7.5-3.4,7.5-7.5c0-4.1-3.4-7.5-7.5-7.5H86.7c-4.1,0-7.5,3.4-7.5,7.5
		C79.2,328.8,82.6,332.2,86.7,332.2z"/>
	<path class="st1" d="M86.7,372.3h176.4c4.1,0,7.5-3.4,7.5-7.5c0-4.1-3.4-7.5-7.5-7.5H86.7c-4.1,0-7.5,3.4-7.5,7.5
		C79.2,368.9,82.6,372.3,86.7,372.3z"/>
	<path class="st1" d="M86.7,412.4h176.4c4.1,0,7.5-3.4,7.5-7.5c0-4.1-3.4-7.5-7.5-7.5H86.7c-4.1,0-7.5,3.4-7.5,7.5
		C79.2,409,82.6,412.4,86.7,412.4z"/>
	<path class="st1" d="M86.7,452.4h176.4c4.1,0,7.5-3.4,7.5-7.5c0-4.1-3.4-7.5-7.5-7.5H86.7c-4.1,0-7.5,3.4-7.5,7.5
		C79.2,449.1,82.6,452.4,86.7,452.4z"/>
	<path class="st1" d="M222.5,485c0-4.1-3.4-7.5-7.5-7.5H86.7c-4.1,0-7.5,3.4-7.5,7.5c0,4.1,3.4,7.5,7.5,7.5H215
		C219.1,492.5,222.5,489.2,222.5,485z"/>
	<path class="st1" d="M466.5,329.4l-11.3-11.3c-2.9-2.9-6.8-4.5-11-4.5c-4.1,0-8,1.6-11,4.5L326.7,424.5c0,0,0,0,0,0l-15,15
		l-67.3,67.3c-3.1,3.1-5.8,6.7-8,10.5l-25.6,46.1c-1.6,2.9-1.1,6.6,1.3,8.9c1.4,1.4,3.4,2.2,5.3,2.2c1.3,0,2.5-0.3,3.6-1l46.1-25.6
		c3.9-2.1,7.4-4.8,10.5-8l188.8-188.8C472.5,345.3,472.5,335.5,466.5,329.4z M259.9,535l-23.2,12.9l12.9-23.2
		c0.6-1.2,1.4-2.3,2.1-3.3l11.5,11.5C262.1,533.6,261,534.3,259.9,535z M274.1,522.5L262,510.4L421.5,351l12.1,12.1L274.1,522.5z
		 M455.9,340.8l-11.7,11.7l-12.1-12.1l11.7-11.7c0,0,0.2-0.1,0.4-0.1c0.2,0,0.3,0.1,0.4,0.1l11.3,11.3
		C456.1,340.2,456.1,340.6,455.9,340.8z"/>
</g>
</svg>
