<?xml version="1.0" encoding="utf-8"?>
<!-- Generator: Adobe Illustrator 19.0.0, SVG Export Plug-In . SVG Version: 6.00 Build 0)  -->
<svg version="1.1" id="Layer_1" xmlns="http://www.w3.org/2000/svg" xmlns:xlink="http://www.w3.org/1999/xlink" x="0px" y="0px"
	 viewBox="-41 164.9 512 512" style="enable-background:new -41 164.9 512 512;" xml:space="preserve">
<style type="text/css">
	.st0{fill:#00386C;}
	.st1{fill:none;}
	.st2{fill:#9DCD00;}
</style>
<path d="M1033,902.7"/>
<g>
	<g>
		<path class="st0" d="M29.1,223.6C4.8,235.3-5.4,264.5,6.3,288.8c11.7,24.3,40.9,34.5,65.2,22.8s34.5-40.9,22.8-65.2
			C82.6,222.1,53.4,211.9,29.1,223.6z M66,300.1c-18,8.7-39.5,1.1-48.2-16.9s-1.1-39.5,16.9-48.2s39.5-1.1,48.2,16.9
			C91.5,269.9,83.9,291.4,66,300.1z"/>
		<path class="st0" d="M16.8,212.7c1.5,3.2,5.3,4.5,8.5,3s4.5-5.3,3-8.5v-0.1l-7.1-14.6c-1.5-3.2-5.3-4.5-8.5-3s-4.5,5.3-3,8.5
			L16.8,212.7z"/>
		<path class="st0" d="M83.8,322.5c-1.5-3.2-5.3-4.5-8.5-3s-4.5,5.3-3,8.5l7.1,14.6c1.5,3.2,5.3,4.5,8.5,3s4.5-5.3,3-8.5L83.8,322.5
			z"/>
		<path class="st0" d="M110.8,245.5l14.6-7.1c3.2-1.5,4.5-5.3,3-8.5s-5.3-4.5-8.5-3l-14.6,7.1c-3.2,1.5-4.5,5.3-3,8.5
			S107.6,247.1,110.8,245.5z"/>
		<path class="st0" d="M-10.1,289.6L-10.1,289.6l-14.7,7.1c-3.2,1.5-4.5,5.3-3,8.5c1.1,2.2,3.3,3.6,5.8,3.6l0,0c1,0,1.9-0.2,2.8-0.6
			l14.6-7.1c3.2-1.5,4.5-5.3,3-8.5C-3.1,289.5-6.9,288.1-10.1,289.6z"/>
		<path class="st0" d="M69.3,213.2c3.3,1.2,7-0.6,8.1-3.9l8.6-24.6c1.2-3.3-0.6-7-3.9-8.1c-3.3-1.2-7,0.6-8.1,3.9l-8.6,24.6
			C64.2,208.4,66,212.1,69.3,213.2z"/>
		<path class="st0" d="M31.3,321.9c-3.3-1.2-7,0.6-8.1,3.9l-8.6,24.6c-1.2,3.3,0.6,7,3.9,8.1c3.3,1.2,7-0.6,8.1-3.9l8.6-24.6
			C36.4,326.7,34.6,323.1,31.3,321.9z"/>
		<path class="st0" d="M137.4,291.3l-24.6-8.6c-3.3-1.2-7,0.6-8.1,3.9c-1.2,3.3,0.6,7,3.9,8.1l24.6,8.6c3.3,1.2,7-0.6,8.1-3.9
			S140.7,292.5,137.4,291.3z"/>
		<path class="st0" d="M-4.1,248.6c1.2-3.3-0.6-7-3.9-8.1l-24.6-8.6c-3.3-1.2-7,0.6-8.1,3.9s0.6,7,3.9,8.1l24.6,8.6
			C-8.9,253.7-5.2,251.9-4.1,248.6z"/>
	</g>
	<g>
		<polygon class="st1" points="201.5,370.5 141.3,370.5 127.7,411.3 187.8,411.3 		"/>
		<polygon class="st1" points="66.4,595.2 126.5,595.2 140.2,554.3 80.1,554.3 		"/>
		<polygon class="st1" points="181,431.8 120.9,431.8 107.3,472.6 167.4,472.6 		"/>
		<polygon class="st1" points="100.5,493 86.8,533.9 147,533.9 160.6,493 		"/>
		<polygon class="st1" points="283.2,370.5 223.1,370.5 209.4,411.3 269.5,411.3 		"/>
		<polygon class="st1" points="364.9,370.5 304.8,370.5 291.1,411.3 351.2,411.3 		"/>
		<polygon class="st1" points="330.8,472.6 344.5,431.8 284.3,431.8 270.7,472.6 		"/>
		<polygon class="st1" points="148.1,595.2 208.2,595.2 221.9,554.3 161.8,554.3 		"/>
		<polygon class="st1" points="249.1,472.6 262.8,431.8 202.6,431.8 189,472.6 		"/>
		<polygon class="st1" points="229.8,595.2 266.7,595.2 289.9,595.2 303.6,554.3 243.5,554.3 		"/>
		<polygon class="st1" points="352.4,472.6 412.5,472.6 426.2,431.8 366,431.8 		"/>
		<polygon class="st1" points="182.2,493 168.5,533.9 228.7,533.9 242.3,493 		"/>
		<polygon class="st1" points="372.8,411.3 432.9,411.3 446.6,370.5 386.5,370.5 		"/>
		<polygon class="st1" points="311.5,595.2 371.7,595.2 385.3,554.3 325.2,554.3 		"/>
		<polygon class="st1" points="263.9,493 250.2,533.9 310.4,533.9 324,493 		"/>
		<polygon class="st1" points="332,533.9 392.1,533.9 405.7,493 345.6,493 		"/>
		<path class="st2" d="M464,350.6c-1-0.4-2.2-0.5-3.2-0.5h-11.9h-20.4h-1.3h-33.1h-38.9l-40.9-0.1H133.9c-4.3,0-8.3,2.8-9.7,7
			L42.5,602.1c-1.8,5.4,1.1,11.1,6.5,12.9c1,0.5,2,0.6,3.2,0.6h108.4h55h61.3h75.5h26.7c4.3,0,8.3-2.8,9.7-7l35.6-106.9l26.8-80.6
			l19.3-57.7C472.3,358.1,469.3,352.4,464,350.6z M304.8,370.5h60.1l-13.7,40.9h-60.1L304.8,370.5z M344.5,431.8l-13.7,40.9h-60.1
			l13.7-40.9H344.5z M223.1,370.5h60.1l-13.7,40.9h-60.1L223.1,370.5z M262.8,431.8l-13.7,40.9H189l13.7-40.9H262.8z M141.3,370.5
			h60.1l-13.7,40.9h-60.1L141.3,370.5z M120.9,431.8H181l-13.7,40.9h-60.1L120.9,431.8z M126.5,595.2H66.4l13.7-40.9h60.1
			L126.5,595.2z M86.8,533.9l13.7-40.9h60.1L147,533.9H86.8z M208.2,595.2h-60.1l13.7-40.9h60.1L208.2,595.2z M168.5,533.9
			l13.7-40.9h60.1l-13.7,40.9H168.5z M289.9,595.2h-23.2h-36.9l13.7-40.9h60.1L289.9,595.2z M250.2,533.9l13.7-40.9H324l-13.7,40.9
			H250.2z M371.7,595.2h-60.1l13.7-40.9h60.1L371.7,595.2z M392.1,533.9H332l13.7-40.9h60.1L392.1,533.9z M412.5,472.6h-60.1
			l13.7-40.9h60.1L412.5,472.6z M432.9,411.3h-60.1l13.7-40.9h60.1L432.9,411.3z"/>
		<path class="st0" d="M185,656.5v20.4h122.6v-20.4h-30.6v-40.9h-61.3v40.9H185z M236.1,615.6h20.4v40.9h-20.4V615.6z"/>
	</g>
</g>
</svg>
