<?xml version="1.0" encoding="utf-8"?>
<!-- Generator: Adobe Illustrator 19.0.0, SVG Export Plug-In . SVG Version: 6.00 Build 0)  -->
<svg version="1.1" id="Layer_1" xmlns="http://www.w3.org/2000/svg" xmlns:xlink="http://www.w3.org/1999/xlink" x="0px" y="0px"
	 viewBox="-41 164.9 512 512" style="enable-background:new -41 164.9 512 512;" xml:space="preserve">
<style type="text/css">
	.st0{fill:#9DCD00;}
	.st1{fill:#00386C;}
</style>
<path class="st0" d="M310.7,445.8c-1.3-4.9-3.3-9.6-5.5-14c26.4-12.4,58.9-43.5,70.8-64.1c17.9-31.1,7.3-71.1-23.8-89
	c-31.1-18.1-71.1-7.3-89,23.8c-9.6,16.8-23.6,61.8-19.7,95.6c-20.1,1.5-39,12.2-50.2,30c-24.1-17.9-69.6-31-93.6-31
	c-36,0-65.2,29.2-65.2,65.2s29.2,65.2,65.2,65.2c24.1,0,68.7-12.9,92.8-30.5c5.5,9.3,13.5,17,23.2,22.7c8.6,5.1,18.1,7.8,27.6,8.6
	c-3.1,33.3,10.3,76.8,20.1,93.9c17.9,31.1,57.9,41.9,89,23.8c31.1-17.9,41.9-57.9,23.8-89c-9.6-16.6-40.1-49.4-70.1-63.8
	c2.4-4.7,4.2-9.5,5.4-14.5C315.2,460.4,310.7,445.8,310.7,445.8z M98.9,494.9c-17.9,0-32.6-14.7-32.6-32.6
	c0-17.9,14.7-32.6,32.6-32.6c25.6,0,78.6,20.4,81.5,32.6C177.3,475.3,123,494.9,98.9,494.9z M290.8,318.9c9-15.7,28.9-21,44.5-11.9
	c15.7,9,20.9,29,11.9,44.5c-10.6,18.3-52,55.9-68.5,54.3c-0.3-0.2-0.5-0.3-0.8-0.5C268.3,392,280.4,337,290.8,318.9L290.8,318.9z
	 M219.2,446.8c7.5-13,23.2-21.4,45.5-11.3c14.8,9.3,19.7,28.7,10.9,44s-28.7,21-44.5,11.9C215.6,482.3,210.2,462.4,219.2,446.8z
	 M347.2,573.2c9,15.7,3.6,35.5-11.9,44.5c-15.5,9-35.5,3.6-44.5-11.9c-9.9-17.3-21-66.2-13.9-84.5c1.5-0.8,2.9-1.5,4.2-2.4
	C300.9,522.1,337.3,555.9,347.2,573.2z"/>
<g>
	<path class="st1" d="M272.4,290c-7.2-1.1-13.7-4.3-18.4-9c-9.7-9.7-23.6-15.3-38.3-15.3s-28.6,5.6-38.3,15.3
		c-0.6,0.6-1.3,1.2-1.9,1.8l-1.2,0.8c-5.6,4.4-12.5,6.8-19.7,6.8c-7.2,0-14.1-2.4-19.7-6.8l-0.9-0.5c-0.8-0.6-1.5-1.3-2.2-2
		c-9.7-9.7-23.6-15.3-38.3-15.3c-14.7,0-28.6,5.6-38.3,15.3c-5.9,5.9-14.8,9.4-24.2,9.4c-9.4,0-18.2-3.5-24.2-9.4
		c-9.8-9.8-22.9-15.3-36.8-15.3c-5.5,0-9.9,4.5-9.9,9.9c0,5.5,4.5,9.9,9.9,9.9c8.6,0,16.7,3.4,22.7,9.4c9.7,9.7,23.6,15.3,38.3,15.3
		c14.7,0,28.6-5.6,38.3-15.3c5.9-5.9,14.8-9.4,24.2-9.4c9.4,0,18.2,3.5,24.2,9.4c6.5,6.5,14.5,11.1,23.2,13.5
		c4.5,1.2,9.1,1.9,13.9,1.9c13.9,0,27-5.5,36.8-15.3c5.9-5.9,14.8-9.4,24.2-9.4c9.4,0,18.2,3.4,24.2,9.3c3.9,3.9,8.4,7.1,13.3,9.5
		l0,0.2c2.3,1.2,4.7,2.2,7.2,3c0.9-2,1.8-3.7,2.7-5.3C265.7,297.9,268.9,293.7,272.4,290z"/>
	<path class="st1" d="M438.4,295c6-6,14.2-9.4,22.7-9.4c5.5,0,9.9-4.5,9.9-9.9c0-5.5-4.5-9.9-9.9-9.9c-13.9,0-27,5.5-36.8,15.3
		c-5.9,5.9-14.8,9.4-24.2,9.4s-18.2-3.5-24.2-9.4c-9.2-9.2-22-14.6-35.8-15.2c-0.3,0-0.7-0.1-1-0.1c-0.2,0-0.5,0-0.7,0
		c-0.2,0-0.5,0-0.7,0c-7.5,0-14.8,1.5-21.4,4.2c12.1-0.6,24.6,2.1,35.9,8.7c11.4,6.6,20,16.1,25.5,27c6.9,3,14.6,4.6,22.5,4.6
		C414.8,310.3,428.7,304.8,438.4,295z"/>
	<path class="st1" d="M400.1,372c14.7,0,28.6-5.6,38.3-15.3c6-6,14.2-9.4,22.7-9.4c5.5,0,9.9-4.5,9.9-9.9c0-5.5-4.5-9.9-9.9-9.9
		c-13.9,0-27,5.5-36.8,15.3c-5.9,5.9-14.8,9.4-24.2,9.4c-6.1,0-11.9-1.4-16.8-4c-1.3,6.4-3.6,12.7-6.9,18.7
		C383.6,370.2,391.7,372,400.1,372z"/>
	<path class="st1" d="M215.7,327.5c-14.7,0-28.6,5.6-38.3,15.3c-0.6,0.6-1.3,1.2-1.9,1.8l-1.2,0.8c-5.6,4.4-12.5,6.8-19.7,6.8
		c-7.2,0-14.1-2.4-19.7-6.8l-0.9-0.5c-0.8-0.6-1.5-1.3-2.2-2c-9.7-9.7-23.6-15.3-38.3-15.3c-14.7,0-28.6,5.6-38.3,15.3
		c-5.9,5.9-14.8,9.4-24.2,9.4c-9.4,0-18.2-3.5-24.2-9.4C-3,333-16.1,327.5-30,327.5c-5.5,0-9.9,4.5-9.9,9.9c0,5.5,4.5,9.9,9.9,9.9
		c8.6,0,16.7,3.4,22.7,9.4C2.4,366.5,16.3,372,31,372c14.7,0,28.6-5.6,38.3-15.3c5.9-5.9,14.8-9.4,24.2-9.4c9.4,0,18.2,3.5,24.2,9.4
		c6.5,6.5,14.5,11.1,23.2,13.5c4.5,1.2,9.1,1.9,13.9,1.9c13.9,0,27-5.5,36.8-15.3c5.9-5.9,14.8-9.4,24.2-9.4
		c9.4,0,18.2,3.4,24.2,9.3c1.5,1.5,3.2,2.9,4.9,4.3c1.2-7.6,2.8-15.1,4.7-22.2C240.1,331.6,228.2,327.5,215.7,327.5z"/>
	<path class="st1" d="M-29.8,226c8.6,0,16.7,3.4,22.7,9.4c9.7,9.7,23.6,15.3,38.3,15.3c14.7,0,28.6-5.6,38.3-15.3
		c5.9-5.9,14.8-9.4,24.2-9.4c9.4,0,18,3.6,24,9.5c9.8,9.8,22.9,15.3,36.8,15.3c0,0,0.1,0,0.1,0c0,0,0.1,0,0.1,0
		c13.9,0,27-5.5,36.8-15.3c5.9-5.9,14.8-9.4,24.2-9.4c9.4,0,18.2,3.5,24.2,9.4c4.5,4.5,10,8.2,16,10.7l0,0.3l1,0.4
		c6.2,2.5,12.9,3.9,19.8,3.9c0.2,0,0.5,0,0.7,0c0.2,0,0.5,0,0.7,0c14.7,0,28.6-5.6,38.3-15.3c5.9-5.9,13.7-9.2,22-9.4
		c9.1,0.2,17.7,3.6,23.4,9.4c9.7,9.7,23.6,15.3,38.3,15.3c14.7,0,28.6-5.6,38.3-15.3c6-6,14.2-9.4,22.7-9.4c5.5,0,9.9-4.5,9.9-9.9
		c0-5.5-4.5-9.9-9.9-9.9c-13.9,0-27,5.5-36.8,15.3c-5.9,5.9-14.8,9.4-24.2,9.4s-18.2-3.5-24.2-9.4c-9.2-9.2-22-14.6-35.8-15.2
		c-0.3,0-0.7-0.1-1-0.1c-0.2,0-0.5,0-0.7,0c-0.2,0-0.5,0-0.7,0c-14.7,0-28.6,5.6-38.3,15.3c-5.9,5.9-13.7,9.2-22,9.4
		c-9.1-0.2-17.7-3.6-23.4-9.4c-9.7-9.7-23.6-15.3-38.3-15.3s-28.6,5.6-38.3,15.3c-0.9,0.9-1.9,1.8-2.9,2.6l0-0.1
		c-5.7,4.5-12.6,6.8-19.8,6.8c-8.6,0-16.7-3.4-22.7-9.4c-9.7-9.7-23.6-15.3-38.3-15.3s-28.6,5.6-38.3,15.3
		c-5.9,5.9-14.8,9.4-24.2,9.4c-9.4,0-18.2-3.5-24.2-9.4c-9.8-9.8-22.9-15.3-36.8-15.3c-5.5,0-9.9,4.5-9.9,9.9
		C-39.7,221.6-35.2,226-29.8,226z"/>
</g>
</svg>
