<svg height='100px' width='100px'  fill="#000000" xmlns:dc="http://purl.org/dc/elements/1.1/" xmlns:cc="http://creativecommons.org/ns#" xmlns:rdf="http://www.w3.org/1999/02/22-rdf-syntax-ns#" xmlns:svg="http://www.w3.org/2000/svg" xmlns="http://www.w3.org/2000/svg" xmlns:sodipodi="http://sodipodi.sourceforge.net/DTD/sodipodi-0.dtd" xmlns:inkscape="http://www.inkscape.org/namespaces/inkscape" version="1.1" x="0px" y="0px" viewBox="0 0 100 100"><g transform="translate(0,-952.36218)"><path style="color:#000000;enable-background:accumulate;" d="m 33.703853,963.18156 c -2.38189,3.56604 -3.29475,7.96084 -3.55078,12.09323 -1.91641,0.40535 -1.99342,2.08085 -2.11801,4.21853 0.26237,2.2607 1.08494,5.38469 3.05242,5.96849 0.87869,3.37921 2.2922,6.76184 4.23603,9.71837 3.39713,5.16692 8.41958,9.11722 14.63919,9.18702 6.20005,0.07 11.21253,-3.8638 14.60804,-9.03082 1.97229,-3.00121 3.40295,-6.44356 4.29832,-9.87457 2.32439,-0.68446 2.81655,-3.87261 3.02123,-5.96849 0.12464,-2.13768 -0.87207,-4.1376 -2.05572,-4.21853 -0.24328,-4.15607 -1.15552,-8.54528 -3.51963,-12.09323 -2.91536,-4.37523 -8.10628,-7.31561 -16.2277,-6.74972 -7.97364,-0.0753 -13.23756,2.48431 -16.38339,6.74972 z m 16.41458,-4.7498 c 7.6822,-0.57024 11.94291,2.01526 14.51461,5.87475 1.87895,2.81984 2.80566,6.40094 3.14587,9.96833 -3.65024,-2.57114 -6.62013,-5.47975 -10.40317,-7.78092 -0.43139,-0.22045 -0.70064,0.0128 -1.05901,0.12504 -8.92753,6.25642 -15.86722,9.54904 -24.23249,9.65584 0.17002,-4.17558 1.02431,-8.60541 3.27046,-11.96824 3.76877,-4.95016 10.02759,-5.89113 14.76373,-5.8748 z m 6.85239,10.15582 c 3.6955,2.50307 7.39339,5.69329 10.93263,8.34339 0.009,0.42109 0.0364,0.83662 0.0311,1.24995 -0.0633,5.05663 -1.88682,11.25473 -5.04584,16.06182 -3.15903,4.80714 -7.57531,8.18476 -12.9261,8.12466 -5.39159,-0.061 -9.82809,-3.50542 -12.98839,-8.31215 -3.10309,-4.71971 -4.85878,-10.72161 -4.92126,-15.71808 11.05736,0.0184 18.3175,-4.60856 24.91787,-9.74959 z m -0.5295,37.74832 c -2.36709,1.7565 -3.99446,4.7395 -6.35403,6.0182 -2.37668,-1.4871 -3.58424,-4.1507 -5.51306,-5.8932 -0.89059,-0.8357 -1.78444,-0.9524 -2.89664,-0.8124 -6.92496,2.9681 -13.38075,5.4659 -18.22112,8.6559 -4.83752,3.188 -8.0984,7.25 -8.03599,12.9682 -0.21808,6.0806 -0.97628,11.4536 0.31147,16.343 0.48319,1.6961 1.50537,3.0259 3.08358,3.7498 1.57821,0.7239 3.59244,0.9426 6.35403,0.9062 11.03809,0.1425 38.3161,0.088 49.71096,0.031 2.19069,-0.1641 4.61251,-0.1684 6.41633,-0.9687 1.58416,-0.7291 2.62241,-2.035 3.11472,-3.7186 0.98463,-3.3672 0.43606,-8.2768 0.43606,-16.1868 0,-5.6927 -3.56645,-9.7504 -8.40975,-12.9994 -4.84329,-3.249 -11.06623,-5.8639 -16.97523,-8.8747 -1.11645,-0.4501 -2.10181,0.1733 -3.02133,0.7813 z m 2.18026,1.0313 c 2.33774,1.1896 4.68686,2.2959 6.97697,3.4061 l -5.79338,9.8745 -7.35074,-7.4059 c 2.38377,-1.9572 4.0268,-4.5146 6.16715,-5.8747 z m -16.13426,0.094 c 2.2163,1.4853 3.6468,4.0034 5.26388,5.8122 l -7.3196,7.4059 -5.76224,-9.8746 c 2.48311,-1.0826 5.08323,-2.1712 7.81796,-3.3436 z m -9.65564,4.156 6.54091,11.1871 c 0.31239,0.516 1.13215,0.6147 1.55737,0.1874 l 8.47204,-8.5308 c 0.4917,0.1358 0.90915,-0.027 1.33923,-0.125 l 8.56563,8.6559 c 0.42484,0.4513 1.27968,0.3504 1.58851,-0.1875 l 6.50977,-11.1245 c 2.89646,1.4305 5.63044,2.855 7.94254,4.406 4.5915,3.0801 7.50648,6.4681 7.50648,11.3433 0,7.9927 0.41661,13.028 -0.34262,15.6243 -0.3796,1.2982 -0.90937,1.9554 -2.02457,2.4687 -1.1152,0.5133 -2.93963,0.7812 -5.6065,0.7812 -11.37256,0.057 -38.71491,0.1107 -49.71096,-0.031 -2.63704,0.035 -4.41545,-0.2152 -5.51306,-0.7187 -1.0976,-0.5035 -1.61961,-1.1565 -1.99342,-2.4687 -0.74761,-2.6242 -0.31822,-7.7245 -0.24918,-15.7805 -0.21803,-4.9502 3.86506,-9.1441 7.13272,-11.3433 2.33126,-1.5363 5.15823,-2.9366 8.28516,-4.3435 z m 17.13097,10.7496 c -1.10094,0 -1.99342,0.8954 -1.99342,1.9999 0,1.1045 0.89248,1.9999 1.99342,1.9999 1.10094,0 1.99342,-0.8954 1.99342,-1.9999 0,-1.1045 -0.89248,-1.9999 -1.99342,-1.9999 z m 0,7.9996 c -1.10094,0 -1.99342,0.8954 -1.99342,2 0,1.1045 0.89248,1.9999 1.99342,1.9999 1.10094,0 1.99342,-0.8954 1.99342,-1.9999 0,-1.1046 -0.89248,-2 -1.99342,-2 z m 0,7.9997 c -1.10094,0 -1.99342,0.8954 -1.99342,1.9999 0,1.1045 0.89248,1.9999 1.99342,1.9999 1.10094,0 1.99342,-0.8954 1.99342,-1.9999 0,-1.1045 -0.89248,-1.9999 -1.99342,-1.9999 z" fill="#000000" stroke="none" marker="none" visibility="visible" display="inline" overflow="visible"></path></g></svg>